<svg width="42" height="42" viewBox="0 0 42 42" fill="none" xmlns="http://www.w3.org/2000/svg">
<g clip-path="url(#clip0_72_195)">
<path d="M36 42H26.5C25.6 42 25 41.4 25 40.5C25 39.6 25.6 39 26.5 39H36C37.65 39 39 37.65 39 36V6C39 4.35 37.65 3 36 3H13.5C11.85 3 10.5 4.35 10.5 6V15.5C10.5 16.4 9.9 17 9 17C8.1 17 7.5 16.4 7.5 15.5V6C7.5 2.7 10.2 0 13.5 0H36C39.3 0 42 2.7 42 6V36C42 39.3 39.3 42 36 42Z" fill="white" fill-opacity="0.75"/>
<path d="M15.8333 31.9145C15.3333 31.5727 15 31.4017 14.5 31.0598C15.1667 30.0342 15.6667 29.0085 15.6667 27.641C15.6667 24.5641 13.1667 22 10 22C6.83333 22 4.33333 24.5641 4.33333 27.641C4.33333 28.8376 4.83333 30.0342 5.5 31.0598C2.16667 32.7692 0 36.188 0 40.2906C0 41.3162 0.666667 42 1.66667 42H18.3333C19.3333 42 20 41.3162 20 40.2906C20 37.0427 18.5 33.9658 15.8333 31.9145ZM10 25.4188C11.3333 25.4188 12.3333 26.4444 12.3333 27.641C12.3333 28.8376 11.3333 30.0342 10 30.0342C8.66667 30.0342 7.66667 29.0085 7.66667 27.812C7.66667 26.6154 8.66667 25.4188 10 25.4188ZM3.5 38.5812C4 36.359 5.66667 34.4786 7.66667 33.7949C9.83333 33.1111 12.1667 33.453 13.8333 34.6496C15.1667 35.6752 16 36.8718 16.3333 38.4103H3.5V38.5812Z" fill="#64FFDA"/>
<path d="M33 10.5H16.5C15.6 10.5 15 9.9 15 9C15 8.1 15.6 7.5 16.5 7.5H33C33.9 7.5 34.5 8.1 34.5 9C34.5 9.9 33.9 10.5 33 10.5Z" fill="white" fill-opacity="0.75"/>
<path d="M33 16.5H16.5C15.6 16.5 15 15.9 15 15C15 14.1 15.6 13.5 16.5 13.5H33C33.9 13.5 34.5 14.1 34.5 15C34.5 15.9 33.9 16.5 33 16.5Z" fill="white" fill-opacity="0.75"/>
<path d="M33 22.5H19.5C18.6 22.5 18 21.9 18 21C18 20.1 18.6 19.5 19.5 19.5H33C33.9 19.5 34.5 20.1 34.5 21C34.5 21.9 33.9 22.5 33 22.5Z" fill="white" fill-opacity="0.75"/>
<path d="M33 28.5H22.5C21.6 28.5 21 27.9 21 27C21 26.1 21.6 25.5 22.5 25.5H33C33.9 25.5 34.5 26.1 34.5 27C34.5 27.9 33.9 28.5 33 28.5Z" fill="white" fill-opacity="0.75"/>
</g>
<defs>
<clipPath id="clip0_72_195">
<rect width="42" height="42" fill="white"/>
</clipPath>
</defs>
</svg>
