<svg width="44" height="40" viewBox="0 0 44 40" fill="none" xmlns="http://www.w3.org/2000/svg">
<g clip-path="url(#clip0_71_119)">
<path d="M39.7461 31.6145C38.8151 31.6145 37.9652 31.9365 37.2777 32.455L29.4861 29.4199C29.4861 29.3631 29.4717 29.3134 29.4694 29.2566L37.3949 24.7608C39.9539 26.6761 43.9454 24.6496 43.8427 21.4393C43.4918 15.3648 34.5569 16.5103 35.7907 22.4549L28.362 26.6666C27.6148 25.8806 26.5621 25.3834 25.3876 25.3834C19.9759 25.5515 19.9688 33.3428 25.3876 33.5131C26.648 33.5131 27.7652 32.9331 28.5172 32.0406L35.7289 34.8507C35.1799 37.327 37.1803 39.7726 39.7417 39.7418C45.1558 39.569 45.1582 31.7848 39.7417 31.6121L39.7461 31.6145ZM39.7461 20.1679C41.4338 20.1987 41.4338 22.6868 39.7461 22.7152C38.0584 22.6844 38.0584 20.1963 39.7461 20.1679ZM25.3923 30.7242C23.7046 30.6935 23.7046 28.2077 25.3923 28.1769C27.0848 28.2124 27.0752 30.6958 25.3923 30.7242ZM39.7461 36.9503C38.0584 36.9195 38.0584 34.4314 39.7461 34.403C41.4338 34.4337 41.4338 36.9219 39.7461 36.9503Z" fill="#64FFDA"/>
<path d="M24.5784 17.5782C24.5784 16.8064 23.9482 16.1838 23.1723 16.1838H7.42216C6.64635 16.1838 6.01611 16.8087 6.01611 17.5782C6.01611 18.3499 6.64629 18.9726 7.42216 18.9726H23.1723C23.9481 18.9726 24.5784 18.3476 24.5784 17.5782Z" fill="white" fill-opacity="0.75"/>
<path d="M20.933 24.1097C20.933 23.3379 20.3028 22.7153 19.5269 22.7153H7.42143C6.64562 22.7153 6.01538 23.3402 6.01538 24.1097C6.01538 24.8815 6.64556 25.5041 7.42143 25.5041H19.5269C20.3027 25.5041 20.933 24.8791 20.933 24.1097Z" fill="white" fill-opacity="0.75"/>
<path d="M7.4195 29.2497C5.57186 29.2805 5.5671 32.0101 7.4195 32.0409H15.8797C17.7274 32.0101 17.7321 29.2805 15.8797 29.2497H7.4195Z" fill="white" fill-opacity="0.75"/>
<path d="M10.7999 0.33457H20.1876L23.005 0.331641H29.6104C31.4604 0.33169 32.9668 1.80425 32.9669 3.61289V17.3346C32.9239 19.1788 30.1906 19.1669 30.1524 17.3346V3.61289C30.1523 3.35253 29.8963 3.12266 29.6075 3.12266C25.3008 3.11556 16.4996 3.13449 12.1671 3.12266V9.5123C12.1671 10.8119 11.0624 11.8706 9.70417 11.8707H3.15339V36.8629C3.15817 36.8818 3.21817 36.9508 3.33992 36.9508H20.5294V36.9527C22.3842 36.9906 22.377 39.7045 20.5294 39.7447H3.33894C1.68489 39.7445 0.339048 38.4518 0.338939 36.8658C0.331778 31.8659 0.341326 15.7819 0.338939 10.5143C0.281617 9.46311 0.639477 8.43523 1.42488 7.68711L7.85163 1.42344C8.5964 0.672954 9.70416 0.284855 10.7999 0.33457ZM4.00788 9.08164H9.35066V3.87363L4.00788 9.08164Z" fill="white" fill-opacity="0.75"/>
</g>
<defs>
<clipPath id="clip0_71_119">
<rect width="44" height="40" fill="white"/>
</clipPath>
</defs>
</svg>
