<svg width="65" height="74" viewBox="0 0 65 74" fill="none" xmlns="http://www.w3.org/2000/svg">
<g clip-path="url(#clip0_44_55)">
<path d="M18.4458 22.4784L19.3482 22.561C19.6982 23.879 20.2231 25.1419 20.9127 26.3325L20.3295 27.0345C19.5574 27.9671 19.6192 29.3126 20.4736 30.166L22.769 32.4682C23.6234 33.3216 24.965 33.3836 25.888 32.6128L26.5879 32.0277C27.7752 32.7194 29.0344 33.2459 30.3484 33.5969L30.4308 34.5019C30.5406 35.7063 31.5322 36.6148 32.74 36.6148H35.9858C37.1902 36.6148 38.1852 35.7063 38.295 34.5019L38.3774 33.5969C39.6915 33.2459 40.9542 32.7194 42.1379 32.0277L42.8378 32.6128C43.7643 33.387 45.1058 33.3251 45.9602 32.4682L48.2522 30.166C49.1066 29.3126 49.1684 27.9671 48.3964 27.0345L47.8131 26.3325C48.5027 25.1418 49.0277 23.8789 49.3776 22.561L50.28 22.4784C51.4809 22.3683 52.3833 21.3703 52.3833 20.1624L52.3867 16.9071C52.3867 15.6992 51.4809 14.7012 50.28 14.5911L49.3776 14.5085C49.0276 13.1905 48.5027 11.9276 47.8131 10.737L48.3964 10.035C49.1649 9.10584 49.1032 7.76036 48.2522 6.90346L45.9568 4.60127C45.1059 3.74784 43.7643 3.68587 42.8344 4.45674L42.1344 5.04174C40.9472 4.35005 39.6846 3.82356 38.3739 3.47259L38.2916 2.56759C38.1818 1.36315 37.1902 0.454712 35.9824 0.454712H32.7365C31.5322 0.454712 30.5372 1.36315 30.4274 2.56759L30.345 3.47259C29.0309 3.8236 27.7716 4.3501 26.5845 5.04174L25.8846 4.45674C24.9581 3.68246 23.6166 3.74441 22.7622 4.60127L20.4667 6.90346C19.6158 7.75688 19.554 9.1024 20.3226 10.035L20.9059 10.737C20.2162 11.9277 19.6913 13.1906 19.3413 14.5085L18.439 14.5911C17.2381 14.7012 16.3323 15.6957 16.3323 16.9071V20.1624C16.3391 21.3703 17.245 22.3648 18.4458 22.4784ZM18.3566 16.9071C18.3566 16.7488 18.4733 16.6214 18.6311 16.6077L20.2507 16.4597C20.6899 16.4184 21.0501 16.0984 21.1462 15.6648C21.4859 14.0818 22.1069 12.578 22.999 11.1981C23.2392 10.8264 23.2083 10.3412 22.927 10.004L21.8839 8.74446C21.7844 8.62401 21.7912 8.44851 21.901 8.33839L24.1965 6.0362C24.3097 5.92608 24.4813 5.9192 24.6014 6.01899L25.8572 7.06512C26.1969 7.3473 26.6807 7.37827 27.0479 7.13739C28.4272 6.24613 29.9231 5.61977 31.5015 5.27911C31.9338 5.18619 32.2529 4.82143 32.2941 4.38098L32.4416 2.75668C32.4554 2.60182 32.5857 2.48482 32.7401 2.48482H35.986C36.1439 2.48482 36.2708 2.60182 36.2845 2.76012L36.4321 4.38442C36.4732 4.8249 36.7923 5.18623 37.2247 5.28255C38.803 5.62323 40.3024 6.24614 41.6783 7.14083C42.0489 7.37828 42.5292 7.35075 42.8689 7.06857L44.1248 6.02244C44.2449 5.92264 44.4198 5.92952 44.5296 6.03964L46.8251 8.34184C46.9349 8.45195 46.9418 8.62746 46.8457 8.7479L45.7992 10.0074C45.5178 10.3481 45.487 10.8298 45.7271 11.2015C46.6158 12.5815 47.2403 14.0852 47.58 15.6717C47.6726 16.1053 48.0363 16.4253 48.4755 16.4666L50.0951 16.6146C50.2495 16.6283 50.3661 16.7591 50.3661 16.9139V20.1693C50.3661 20.3276 50.2495 20.4549 50.0916 20.4687L48.4721 20.6167C48.0329 20.658 47.6726 20.978 47.58 21.4116C47.2403 22.998 46.6158 24.5018 45.7271 25.8783C45.4869 26.2499 45.5178 26.7352 45.7992 27.0724L46.8457 28.3319C46.9452 28.4524 46.9383 28.6279 46.8251 28.738L44.5331 31.0402C44.4233 31.1503 44.2483 31.1572 44.1282 31.0608L42.8724 30.0113C42.5327 29.7291 42.0489 29.7015 41.6817 29.939C40.3058 30.8302 38.8064 31.4532 37.2247 31.7973C36.7923 31.8902 36.4732 32.2549 36.4321 32.6954L36.2845 34.3197C36.2708 34.4746 36.1404 34.5916 35.986 34.5916H32.7401C32.5823 34.5916 32.4553 34.4746 32.4416 34.3163L32.2941 32.692C32.2529 32.2515 31.9338 31.8901 31.5015 31.7938C29.9197 31.4531 28.4203 30.8268 27.0444 29.9355C26.8763 29.8289 26.6876 29.7738 26.4989 29.7738C26.269 29.7738 26.0391 29.853 25.8538 30.0078L24.598 31.0574C24.4779 31.1572 24.3063 31.1503 24.1931 31.0402L21.8976 28.738C21.7878 28.6279 21.781 28.4524 21.8805 28.3319L22.927 27.0724C23.2083 26.7317 23.2392 26.25 22.999 25.8783C22.1104 24.4984 21.4893 22.9946 21.1496 21.4116C21.057 20.978 20.6933 20.658 20.2541 20.6167L18.6346 20.4687C18.4767 20.4549 18.3601 20.3242 18.3601 20.1693L18.3566 16.9071Z" fill="white" fill-opacity="0.69"/>
<path d="M34.3632 28.0249C39.582 28.0249 43.8259 23.7681 43.8259 18.5344C43.8259 13.3003 39.5816 9.04385 34.3632 9.04385C29.1447 9.04385 24.9004 13.3006 24.9004 18.5344C24.9004 23.7684 29.1447 28.0249 34.3632 28.0249ZM34.3632 11.0665C38.4703 11.0665 41.8088 14.4148 41.8088 18.534C41.8088 22.6532 38.4703 26.0015 34.3632 26.0015C30.256 26.0015 26.9175 22.6532 26.9175 18.534C26.9175 14.4148 30.256 11.0665 34.3632 11.0665Z" fill="white" fill-opacity="0.69"/>
<path d="M64.0671 35.668C63.6073 34.3638 62.4716 33.4243 61.106 33.2179C59.9909 33.0493 58.8757 33.39 58.042 34.1539L48.4896 42.9015C48.0744 43.2835 47.6284 43.6242 47.1583 43.927C47.2475 43.5588 47.299 43.1734 47.299 42.7742C47.299 40.152 45.1717 38.0219 42.5606 38.0219H30.3731C29.2648 38.0219 28.1394 37.7604 27.1924 37.5057C26.9248 37.4335 26.6571 37.375 26.3895 37.3337C23.2122 36.814 19.9389 38.194 17.839 40.9331L11.3404 49.4192L10.2939 48.4487C9.24742 47.4783 7.60731 47.5403 6.63627 48.5933L1.40719 54.2678C0.439571 55.3174 0.504834 56.9623 1.5513 57.9328L17.6397 72.8543C18.1372 73.3155 18.7651 73.5426 19.393 73.5426C20.0895 73.5426 20.786 73.2638 21.2939 72.7098L26.523 67.0352C27.4906 65.9857 27.4253 64.3408 26.3789 63.3703L25.2397 62.3139L27.12 60.4693C28.7429 58.8795 30.8805 57.8987 33.1417 57.7163L38.3914 57.2931C44.3617 56.8079 49.8788 54.1065 53.9282 49.6777L63.2952 39.4366C64.2353 38.4181 64.5268 36.9722 64.0671 35.668ZM25.0443 65.6653L19.8152 71.3364C19.6025 71.567 19.2388 71.5808 19.0123 71.3674L2.92041 56.4494C2.69052 56.236 2.6768 55.8747 2.88953 55.6441L8.1186 49.9696C8.23183 49.8491 8.3828 49.7872 8.5372 49.7872C8.67445 49.7872 8.81513 49.8388 8.92493 49.9386L25.0133 64.8602C25.2432 65.0701 25.257 65.4313 25.0443 65.6653ZM61.8123 38.0704L52.4453 48.3114C48.7431 52.3618 43.6924 54.8325 38.2331 55.2764L32.9834 55.6997C30.2522 55.9199 27.6685 57.1002 25.7128 59.0239L23.7604 60.9407L12.8255 50.8027L19.4373 42.1721C21.0808 40.0247 23.6199 38.9373 26.0629 39.3364C26.2654 39.3709 26.4644 39.4121 26.6668 39.4672C27.7442 39.7563 29.0274 40.0522 30.3725 40.0522H42.56C44.0594 40.0522 45.281 41.2773 45.281 42.7811C45.281 44.0372 44.4403 45.0936 43.2841 45.4137C42.9101 45.4722 42.5326 45.5135 42.1517 45.5307L35.9997 45.7922L35.4747 45.8129H35.4713L34.2806 45.8645C33.7248 45.8886 33.2924 46.36 33.3164 46.9175C33.3404 47.475 33.8277 47.912 34.3663 47.8845L36.2192 47.8054L42.759 47.5301C43.0849 47.5163 43.4006 47.4716 43.706 47.3959C45.9877 47.0139 48.1322 45.9781 49.8546 44.402L59.407 35.6544C59.7878 35.3069 60.2991 35.152 60.8104 35.2243C61.4451 35.3206 61.953 35.7405 62.1657 36.3461C62.3784 36.9483 62.2481 37.5955 61.8123 38.0704Z" fill="white" fill-opacity="0.69"/>
<path d="M33.1825 21.2671C32.9766 20.9952 32.8359 20.6718 32.7604 20.2966L30.9282 20.4928C31.0689 21.4185 31.3914 22.1308 31.8958 22.6401C32.4002 23.146 33.059 23.4488 33.8688 23.5485V24.8287H34.8879V23.5141C35.8006 23.3833 36.5108 23.0254 37.0255 22.4439C37.5367 21.8623 37.7941 21.1465 37.7941 20.2966C37.7941 19.5361 37.5916 18.9132 37.1833 18.428C36.775 17.9428 36.0099 17.5471 34.8879 17.2407V14.4878C35.3408 14.6839 35.6221 15.059 35.7285 15.613L37.5024 15.379C37.3823 14.677 37.1009 14.1126 36.6617 13.6928C36.2226 13.273 35.6289 13.0183 34.8879 12.9288V12.2337H33.8688V12.9288C33.0659 13.008 32.4208 13.3108 31.937 13.8338C31.4532 14.3569 31.2096 15.0038 31.2096 15.7712C31.2096 16.5317 31.4224 17.1787 31.8513 17.712C32.2802 18.2454 32.9527 18.6412 33.8688 18.9027V21.8519C33.6183 21.7383 33.3883 21.5389 33.1825 21.2671ZM34.8878 19.2127C35.3098 19.3331 35.6117 19.5087 35.797 19.7358C35.9823 19.9629 36.075 20.2348 36.075 20.5479C36.075 20.8989 35.9652 21.2052 35.7456 21.4667C35.526 21.7283 35.2412 21.89 34.8912 21.9554L34.8878 19.2127ZM33.1893 16.3875C33.0383 16.1741 32.9663 15.9436 32.9663 15.6924C32.9663 15.4205 33.0486 15.1727 33.2133 14.9456C33.378 14.7219 33.5976 14.5602 33.8721 14.4673V16.9036C33.5667 16.7729 33.3403 16.6008 33.1893 16.3875Z" fill="white" fill-opacity="0.69"/>
</g>
<defs>
<clipPath id="clip0_44_55">
<rect width="65" height="74" fill="white"/>
</clipPath>
</defs>
</svg>
