<svg width="69" height="70" viewBox="0 0 69 70" fill="none" xmlns="http://www.w3.org/2000/svg">
<g clip-path="url(#clip0_44_63)">
<path fill-rule="evenodd" clip-rule="evenodd" d="M25.3121 29.3856C26.1947 29.387 27.058 29.1281 27.7924 28.6418C28.5269 28.1555 29.0997 27.4635 29.4381 26.6536C29.7765 25.8437 29.8654 24.9522 29.6936 24.092C29.5218 23.2318 29.0969 22.4416 28.4728 21.8215C27.8486 21.2014 27.0534 20.7792 26.1876 20.6085C25.3219 20.4377 24.4246 20.5261 23.6094 20.8624C22.7942 21.1986 22.0978 21.7677 21.6083 22.4974C21.1189 23.2272 20.8584 24.0849 20.8598 24.9618C20.8636 26.1339 21.3339 27.2569 22.1681 28.0857C23.0022 28.9145 24.1325 29.3817 25.3121 29.3856ZM25.3121 21.9453C25.9129 21.9439 26.5006 22.1196 27.0008 22.4502C27.501 22.7808 27.8913 23.2514 28.1222 23.8025C28.3531 24.3535 28.4142 24.9603 28.2979 25.5459C28.1816 26.1315 27.893 26.6697 27.4687 27.0923C27.0444 27.5148 26.5035 27.8029 25.9143 27.9198C25.3252 28.0368 24.7144 27.9775 24.1592 27.7494C23.604 27.5213 23.1295 27.1347 22.7955 26.6385C22.4616 26.1422 22.2834 25.5588 22.2834 24.9618C22.2853 24.1636 22.6048 23.3986 23.1721 22.8335C23.7395 22.2684 24.5088 21.9492 25.3121 21.9453ZM18.2668 22.2773L16.9232 22.4072C16.5257 22.4381 16.1521 22.6081 15.8688 22.8869C15.5856 23.1657 15.411 23.5352 15.3761 23.9299C15.2946 24.6493 15.2946 25.3755 15.3761 26.0948C15.4159 26.4894 15.5941 26.8575 15.8797 27.1346C16.1652 27.4117 16.5397 27.5801 16.9377 27.6103L18.2814 27.7185C18.3182 27.7205 18.3537 27.7332 18.3834 27.755C18.4131 27.7768 18.4357 27.8068 18.4484 27.8412C18.4632 27.8735 18.4676 27.9095 18.4611 27.9443C18.4546 27.9792 18.4375 28.0112 18.4121 28.0361L17.5551 29.068C17.3011 29.3723 17.1621 29.7552 17.1621 30.1505C17.1621 30.5458 17.3011 30.9287 17.5551 31.233C18.014 31.7852 18.5274 32.2905 19.0876 32.7412C19.395 32.9909 19.7799 33.1274 20.1771 33.1274C20.5742 33.1274 20.9591 32.9909 21.2665 32.7412L22.2906 31.8752C22.3207 31.8551 22.3561 31.8443 22.3923 31.8443C22.4286 31.8443 22.464 31.8551 22.494 31.8752C22.5276 31.8874 22.557 31.9087 22.5789 31.9368C22.6007 31.965 22.6141 31.9986 22.6175 32.034L22.741 33.3691C22.7733 33.7643 22.9445 34.1356 23.2247 34.418C23.5049 34.7003 23.8762 34.8757 24.2735 34.9134C24.6221 34.9134 24.9635 34.9639 25.3121 34.9639C25.6859 34.9641 26.0594 34.9424 26.4306 34.899C26.8278 34.8594 27.1982 34.6823 27.4771 34.3986C27.756 34.1149 27.9255 33.7428 27.9559 33.3474L28.0648 32.0124C28.0692 31.9764 28.0829 31.9423 28.1046 31.9132C28.1262 31.8841 28.1551 31.8611 28.1883 31.8464C28.2192 31.8286 28.2543 31.8193 28.29 31.8193C28.3257 31.8193 28.3608 31.8286 28.3917 31.8464L29.4231 32.6979C29.7293 32.9502 30.1147 33.0883 30.5125 33.0883C30.9104 33.0883 31.2957 32.9502 31.602 32.6979C32.1596 32.2438 32.6683 31.7335 33.12 31.1752C33.374 30.8709 33.5129 30.4881 33.5129 30.0928C33.5129 29.6975 33.374 29.3146 33.12 29.0103L32.2484 27.9928C32.2263 27.9644 32.2121 27.9307 32.2074 27.8951C32.2027 27.8595 32.2076 27.8233 32.2217 27.7902C32.2357 27.7572 32.2584 27.7284 32.2874 27.7069C32.3163 27.6854 32.3505 27.672 32.3864 27.668L33.7228 27.5453C34.1236 27.507 34.4976 27.3285 34.7782 27.0417C35.0589 26.7549 35.228 26.3784 35.2554 25.9794C35.3334 25.2598 35.3334 24.534 35.2554 23.8144C35.1981 23.4311 35.0105 23.0789 34.7238 22.8163C34.437 22.5537 34.0684 22.3966 33.6793 22.3711L32.3428 22.2629C32.3062 22.26 32.2712 22.247 32.2416 22.2253C32.2121 22.2036 32.1893 22.1741 32.1758 22.1402C32.1555 22.1104 32.1446 22.0752 32.1446 22.0392C32.1446 22.0031 32.1555 21.968 32.1758 21.9381L33.0328 20.9134C33.2881 20.6097 33.428 20.2266 33.428 19.8309C33.428 19.4352 33.2881 19.0521 33.0328 18.7484C32.5796 18.1911 32.0656 17.6852 31.5003 17.2402C31.1947 16.9866 30.8091 16.8476 30.4108 16.8476C30.0126 16.8476 29.627 16.9866 29.3214 17.2402L28.3263 18.0917C28.2963 18.1119 28.2609 18.1227 28.2246 18.1227C28.1884 18.1227 28.153 18.1119 28.123 18.0917C28.0902 18.0792 28.0618 18.0576 28.0412 18.0294C28.0206 18.0013 28.0086 17.9678 28.0067 17.933L27.8905 16.5979C27.8552 16.2026 27.682 15.8319 27.4009 15.5499C27.1197 15.268 26.7483 15.0924 26.3507 15.0536C25.6265 14.9761 24.896 14.9761 24.1718 15.0536C23.7754 15.0963 23.4065 15.2756 23.1292 15.5603C22.8519 15.8451 22.6837 16.2173 22.6538 16.6124L22.5376 17.9474C22.5349 17.982 22.5226 18.0151 22.502 18.0431C22.4815 18.0711 22.4536 18.0929 22.4214 18.1062C22.3913 18.1263 22.3559 18.1371 22.3197 18.1371C22.2834 18.1371 22.248 18.1263 22.218 18.1062L21.1794 17.2546C20.8737 17.001 20.4881 16.862 20.0899 16.862C19.6917 16.862 19.3061 17.001 19.0004 17.2546C18.4474 17.7035 17.9434 18.2091 17.497 18.7629C17.243 19.0672 17.104 19.45 17.104 19.8453C17.104 20.2406 17.243 20.6235 17.497 20.9278L18.3685 21.9526C18.3922 21.9799 18.408 22.0131 18.4144 22.0487C18.4208 22.0842 18.4175 22.1208 18.4048 22.1546C18.395 22.1855 18.377 22.2132 18.3528 22.2348C18.3285 22.2563 18.2988 22.271 18.2668 22.2773ZM19.4871 21.0505L18.6155 20.0258C18.5705 19.9735 18.5457 19.9069 18.5457 19.8381C18.5457 19.7693 18.5705 19.7028 18.6155 19.6505C19.002 19.1714 19.4377 18.7337 19.9156 18.3443C19.9688 18.3009 20.0356 18.2772 20.1044 18.2772C20.1733 18.2772 20.24 18.3009 20.2933 18.3443L21.3319 19.2031C21.5599 19.3877 21.8341 19.5071 22.1252 19.5486C22.4163 19.5901 22.7133 19.5521 22.9843 19.4386C23.2552 19.3251 23.49 19.1404 23.6634 18.9044C23.8368 18.6684 23.9422 18.39 23.9684 18.099L24.0846 16.7639C24.0895 16.6959 24.1184 16.6318 24.1662 16.5829C24.2141 16.534 24.2778 16.5035 24.3461 16.4969C24.9617 16.432 25.5826 16.432 26.1982 16.4969C26.2671 16.5021 26.3316 16.5321 26.3798 16.5813C26.4279 16.6304 26.4563 16.6954 26.4597 16.7639L26.5904 18.099C26.6171 18.3914 26.7242 18.6709 26.8999 18.907C27.0756 19.143 27.3133 19.3266 27.5869 19.4376C27.8605 19.5485 28.1595 19.5827 28.4513 19.5362C28.7431 19.4898 29.0165 19.3645 29.2415 19.1742L30.2728 18.3154C30.3261 18.2721 30.3928 18.2483 30.4617 18.2483C30.5305 18.2483 30.5973 18.2721 30.6505 18.3154C31.1296 18.6979 31.5677 19.1283 31.9579 19.6C32.0029 19.6523 32.0276 19.7188 32.0276 19.7876C32.0276 19.8564 32.0029 19.923 31.9579 19.9752L31.1081 21C30.9183 21.2263 30.7946 21.5001 30.7507 21.7915C30.7067 22.0828 30.744 22.3806 30.8587 22.6523C30.9733 22.924 31.1608 23.1592 31.4007 23.3323C31.6407 23.5055 31.9239 23.6098 32.2194 23.634L33.5631 23.7495C33.632 23.7528 33.6974 23.781 33.7469 23.8289C33.7964 23.8767 33.8266 23.9409 33.8318 24.0093C33.8972 24.6209 33.8972 25.2378 33.8318 25.8495C33.8251 25.9173 33.7944 25.9807 33.7453 26.0282C33.6961 26.0758 33.6315 26.1045 33.5631 26.1093L32.2194 26.2319C31.9269 26.262 31.6483 26.3706 31.4132 26.5461C31.1782 26.7215 30.9956 26.9573 30.8851 27.228C30.7747 27.4987 30.7404 27.7941 30.7861 28.0827C30.8318 28.3713 30.9557 28.642 31.1444 28.866L32.0087 29.8907C32.0524 29.9436 32.0763 30.0099 32.0763 30.0783C32.0763 30.1468 32.0524 30.2131 32.0087 30.266C31.6196 30.7452 31.1815 31.1829 30.7014 31.5721C30.6481 31.6155 30.5814 31.6392 30.5125 31.6392C30.4437 31.6392 30.3769 31.6155 30.3237 31.5721L29.2923 30.7206C29.0645 30.532 28.789 30.4092 28.4957 30.3655C28.2025 30.3218 27.9028 30.3589 27.6293 30.4728C27.3559 30.5867 27.1191 30.773 26.9449 31.0114C26.7706 31.2498 26.6656 31.5311 26.6413 31.8247L26.5396 33.1959C26.5318 33.264 26.501 33.3275 26.4522 33.376C26.4034 33.4245 26.3394 33.4551 26.2708 33.4629C25.655 33.5242 25.0346 33.5242 24.4187 33.4629C24.3504 33.4562 24.2867 33.4258 24.2388 33.3769C24.191 33.328 24.1621 33.2639 24.1573 33.1959L24.0338 31.8608C24.0044 31.569 23.8956 31.2906 23.7191 31.0554C23.5426 30.8203 23.3051 30.6374 23.0319 30.5261C22.7588 30.4149 22.4603 30.3796 22.1685 30.424C21.8767 30.4685 21.6026 30.5909 21.3755 30.7783L20.3368 31.6154C20.2836 31.6588 20.2169 31.6825 20.148 31.6825C20.0791 31.6825 20.0124 31.6588 19.9592 31.6154C19.4808 31.2243 19.0428 30.7868 18.6518 30.3093C18.6081 30.2564 18.5843 30.1901 18.5843 30.1216C18.5843 30.0532 18.6081 29.9869 18.6518 29.934L19.5088 28.902C19.6966 28.6756 19.8186 28.4025 19.8614 28.1122C19.9043 27.8219 19.8665 27.5255 19.752 27.255C19.6376 26.9846 19.451 26.7503 19.2122 26.5776C18.9735 26.4049 18.6918 26.3004 18.3976 26.2752L17.0612 26.1598C16.9919 26.1552 16.9264 26.1268 16.876 26.0793C16.8256 26.0319 16.7935 25.9685 16.7852 25.9C16.7234 25.2881 16.7234 24.6716 16.7852 24.0598C16.7904 23.9914 16.8206 23.9272 16.8701 23.8794C16.9196 23.8315 16.9849 23.8033 17.0539 23.8L18.3976 23.6701C18.6925 23.6448 18.9747 23.5393 19.2133 23.3651C19.4519 23.191 19.6376 22.955 19.7502 22.6829C19.8627 22.4109 19.8977 22.1133 19.8513 21.8228C19.8048 21.5323 19.6788 21.2601 19.4871 21.0361V21.0505ZM67.3295 64.4433L61.519 58.6701C61.3297 58.4784 61.1036 58.3266 60.854 58.2237C60.6044 58.1208 60.3365 58.0689 60.0663 58.0711C59.9219 58.0696 59.7779 58.0866 59.6378 58.1216L55.861 54.369C57.2954 52.2791 58.0554 49.8048 58.0399 47.2752C58.0457 44.8575 57.351 42.4892 56.0385 40.4532C54.7261 38.4172 52.8515 36.7997 50.6387 35.7938V13.668C50.6397 12.727 50.4541 11.795 50.0925 10.9252C49.7309 10.0554 49.2005 9.26489 48.5314 8.5988C47.8624 7.93271 47.0678 7.40407 46.1932 7.04307C45.3185 6.68207 44.3808 6.49578 43.4337 6.49483H34.638C34.4046 6.00446 34.0369 5.58935 33.5771 5.29707C33.1172 5.00478 32.5837 4.84715 32.0378 4.84225H30.1348C29.9662 3.69101 29.3859 2.63859 28.5004 1.87752C27.6148 1.11645 26.483 0.697601 25.3121 0.697601C24.1412 0.697601 23.0094 1.11645 22.1239 1.87752C21.2383 2.63859 20.6581 3.69101 20.4894 4.84225H18.5937C18.0453 4.84444 17.5087 5.0008 17.046 5.29324C16.5833 5.58568 16.2134 6.00226 15.979 6.49483H7.19053C5.28022 6.50056 3.45024 7.25907 2.10217 8.60389C0.754096 9.94871 -0.0019288 11.77 3.69568e-06 13.668V62.8412C0.00191624 64.7368 0.75964 66.5543 2.10729 67.896C3.45495 69.2377 5.28274 69.9943 7.19053 70H43.4337C45.344 69.9981 47.1755 69.2432 48.5263 67.9011C49.8771 66.559 50.6368 64.7393 50.6387 62.8412V58.6773C51.2953 58.378 51.9247 58.0231 52.5199 57.6165L56.2967 61.3402C56.2215 61.6738 56.2326 62.0209 56.3292 62.3491C56.4257 62.6772 56.6045 62.9757 56.8487 63.2165L62.6593 69.0257C63.2709 69.6411 64.1034 69.9898 64.9738 69.9952C65.8442 70.0006 66.6811 69.6623 67.3004 69.0546C67.9197 68.4469 68.2707 67.6197 68.2762 66.7549C68.2816 65.8901 67.9411 65.0586 67.3295 64.4433ZM56.6526 47.2392C56.6555 49.448 55.9993 51.6081 54.7668 53.4464C53.5344 55.2848 51.7812 56.7189 49.7287 57.5674C47.6762 58.416 45.4165 58.641 43.2354 58.2139C41.0542 57.7868 39.0494 56.7269 37.4744 55.168C35.8994 53.6092 34.8249 51.6214 34.3866 49.4559C33.9483 47.2904 34.166 45.0445 35.0121 43.0019C35.8582 40.9593 37.2947 39.2118 39.1402 37.9802C40.9856 36.7486 43.1571 36.0882 45.3802 36.0825C46.8577 36.0796 48.3212 36.3659 49.6873 36.9251C51.0534 37.4842 52.2953 38.3052 53.342 39.3412C54.3887 40.3772 55.2199 41.6079 55.7879 42.963C56.3559 44.3182 56.6498 45.7712 56.6526 47.2392ZM49.2152 13.668V35.2453C48.5617 35.0338 47.891 34.8792 47.2105 34.7835V13.668C47.2086 12.6817 46.8129 11.7364 46.1103 11.0396C45.4076 10.3429 44.4555 9.95153 43.4627 9.95153H34.9067V7.93813H43.4337C44.9622 7.94568 46.4261 8.55133 47.5083 9.62386C48.5905 10.6964 49.2037 12.1494 49.2152 13.668ZM17.1411 7.71442C17.1411 7.33163 17.2941 6.96452 17.5665 6.69385C17.8389 6.42318 18.2084 6.27112 18.5937 6.27112H21.1503C21.343 6.27112 21.5277 6.19509 21.6639 6.05975C21.8001 5.92442 21.8766 5.74086 21.8766 5.54947C21.8766 4.64035 22.2401 3.76847 22.8871 3.12563C23.5341 2.48278 24.4116 2.12164 25.3266 2.12164C26.2416 2.12164 27.1192 2.48278 27.7662 3.12563C28.4132 3.76847 28.7766 4.64035 28.7766 5.54947C28.7766 5.74086 28.8532 5.92442 28.9894 6.05975C29.1256 6.19509 29.3103 6.27112 29.5029 6.27112H32.0668C32.4521 6.27112 32.8216 6.42318 33.094 6.69385C33.3664 6.96452 33.5195 7.33163 33.5195 7.71442V10.1608C33.5195 10.5436 33.3664 10.9107 33.094 11.1814C32.8216 11.452 32.4521 11.6041 32.0668 11.6041H18.5937C18.2084 11.6041 17.8389 11.452 17.5665 11.1814C17.2941 10.9107 17.1411 10.5436 17.1411 10.1608V7.71442ZM18.5937 13.0185H32.0378C32.5837 13.0136 33.1172 12.856 33.5771 12.5637C34.0369 12.2714 34.4046 11.8563 34.638 11.366H43.4337C43.7386 11.365 44.0406 11.4239 44.3226 11.5391C44.6045 11.6544 44.8608 11.8238 45.0767 12.0377C45.2926 12.2515 45.464 12.5056 45.5808 12.7854C45.6977 13.0652 45.7579 13.3651 45.7579 13.668V34.6392H45.3802C43.6917 34.599 42.0122 34.8947 40.4404 35.509C38.8687 36.1232 37.4364 37.0435 36.2279 38.2159C35.0194 39.3882 34.0591 40.7888 33.4034 42.3353C32.7477 43.8818 32.41 45.543 32.41 47.2211C32.41 48.8992 32.7477 50.5604 33.4034 52.1069C34.0591 53.6534 35.0194 55.054 36.2279 56.2264C37.4364 57.3987 38.8687 58.319 40.4404 58.9333C42.0122 59.5475 43.6917 59.8433 45.3802 59.8031H45.7579V62.834C45.7579 63.1369 45.6977 63.4369 45.5808 63.7166C45.464 63.9964 45.2926 64.2505 45.0767 64.4644C44.8608 64.6782 44.6045 64.8476 44.3226 64.9629C44.0406 65.0782 43.7386 65.137 43.4337 65.1361H7.19053C6.57604 65.1361 5.98671 64.8935 5.5522 64.4618C5.11769 64.0301 4.87358 63.4445 4.87358 62.834V13.668C4.87358 13.0575 5.11769 12.4719 5.5522 12.0402C5.98671 11.6085 6.57604 11.366 7.19053 11.366H15.979C16.2175 11.8531 16.5892 12.2638 17.0516 12.5509C17.514 12.838 18.0484 12.9901 18.5937 12.9897V13.0185ZM49.2152 62.8124C49.2152 64.3435 48.603 65.8119 47.5133 66.8946C46.4236 67.9773 44.9457 68.5855 43.4046 68.5855H7.19053C5.64948 68.5855 4.17155 67.9773 3.08187 66.8946C1.99218 65.8119 1.38 64.3435 1.38 62.8124V13.668C1.38 12.1369 1.99218 10.6684 3.08187 9.58576C4.17155 8.50308 5.64948 7.89483 7.19053 7.89483H15.7175V9.92267H7.19053C6.19907 9.92457 5.24877 10.3167 4.5477 11.0133C3.84663 11.7099 3.45192 12.6541 3.45 13.6392V62.8412C3.45192 63.8263 3.84663 64.7705 4.5477 65.4671C5.24877 66.1636 6.19907 66.5558 7.19053 66.5577H43.4337C43.9277 66.5615 44.4176 66.4682 44.8751 66.2833C45.3327 66.0983 45.749 65.8253 46.1 65.4799C46.451 65.1345 46.7298 64.7235 46.9204 64.2707C47.111 63.8179 47.2096 63.3321 47.2105 62.8412V59.6876C47.9008 59.5935 48.5814 59.439 49.2442 59.2257L49.2152 62.8124ZM54.9531 55.4371L58.3595 58.8216L57.0666 60.1062L53.6602 56.7216C54.1188 56.3321 54.5507 55.9126 54.9531 55.466V55.4371ZM66.3272 68.0443C65.9785 68.3907 65.5056 68.5853 65.0125 68.5853C64.5195 68.5853 64.0466 68.3907 63.6979 68.0443L57.8874 62.235C57.7729 62.1167 57.7089 61.959 57.7089 61.7948C57.7089 61.6307 57.7729 61.4729 57.8874 61.3546L59.6305 59.6299C59.687 59.5719 59.7547 59.526 59.8297 59.4949C59.9046 59.4639 59.9851 59.4484 60.0663 59.4495C60.1486 59.4483 60.2303 59.4637 60.3064 59.4947C60.3825 59.5257 60.4516 59.5717 60.5094 59.6299L66.3635 65.4392C66.7081 65.7862 66.9014 66.2542 66.9014 66.7417C66.9014 67.2293 66.7081 67.6972 66.3635 68.0443H66.3272ZM35.6912 47.2392C35.6912 49.1432 36.2594 51.0044 37.3241 52.5875C38.3887 54.1706 39.9019 55.4045 41.6724 56.1332C43.4428 56.8618 45.391 57.0524 47.2705 56.681C49.1499 56.3095 50.8764 55.3927 52.2314 54.0463C53.5864 52.7 54.5092 50.9847 54.8831 49.1173C55.257 47.2498 55.0651 45.3142 54.3317 43.5551C53.5984 41.7961 52.3565 40.2926 50.7632 39.2348C49.1698 38.177 47.2965 37.6124 45.3802 37.6124C42.8111 37.6143 40.3478 38.6291 38.5311 40.4341C36.7145 42.2391 35.6931 44.6866 35.6912 47.2392ZM53.6457 47.2392C53.6443 48.8631 53.1583 50.4502 52.2492 51.7997C51.3401 53.1493 50.0487 54.2008 48.5382 54.8212C47.0278 55.4417 45.3661 55.6033 43.7633 55.2856C42.1604 54.9679 40.6883 54.1852 39.5331 53.0364C38.3779 51.8876 37.5914 50.4243 37.273 48.8314C36.9547 47.2386 37.1188 45.5877 37.7446 44.0875C38.3704 42.5873 39.4298 41.3052 40.7889 40.4031C42.148 39.501 43.7458 39.0196 45.3802 39.0196C47.5724 39.0234 49.6737 39.8908 51.2231 41.4317C52.7726 42.9725 53.6438 45.061 53.6457 47.2392ZM41.7922 45.5938C41.6286 45.377 41.4233 45.1946 41.1883 45.0572C40.9533 44.9197 40.6931 44.8299 40.4229 44.793C40.1528 44.7561 39.8779 44.7728 39.6142 44.8421C39.3506 44.9114 39.1034 45.032 38.887 45.1969C38.6701 45.3606 38.4879 45.5652 38.3508 45.799C38.2137 46.0328 38.1244 46.2912 38.0879 46.5593C38.0515 46.8275 38.0687 47.1001 38.1385 47.3617C38.2083 47.6232 38.3294 47.8685 38.4947 48.0835L41.509 52.0237C41.6813 52.2513 41.8994 52.4407 42.1495 52.5799C42.3997 52.7191 42.6762 52.8049 42.9616 52.8319H43.1141C43.6555 52.8349 44.1768 52.6278 44.5667 52.2546L51.1835 45.8752C51.375 45.6861 51.5269 45.4612 51.6306 45.2135C51.7343 44.9658 51.7877 44.7002 51.7877 44.4319C51.7877 44.1637 51.7343 43.898 51.6306 43.6503C51.5269 43.4027 51.375 43.1778 51.1835 42.9886C50.9963 42.7927 50.7711 42.6367 50.5214 42.53C50.2716 42.4233 50.0027 42.3682 49.7309 42.368C49.4624 42.3646 49.1959 42.4138 48.9466 42.5129C48.6974 42.612 48.4702 42.7589 48.2782 42.9453L43.332 47.7082L41.7922 45.5938ZM49.3314 43.9412C49.3922 43.8836 49.464 43.8385 49.5426 43.8088C49.6212 43.7791 49.7049 43.7652 49.789 43.768C49.873 43.7668 49.9563 43.7828 50.0338 43.8151C50.1113 43.8474 50.1813 43.8953 50.2393 43.9557C50.3565 44.0783 50.4215 44.2412 50.4208 44.4103C50.4195 44.494 50.4014 44.5767 50.3678 44.6535C50.3341 44.7303 50.2855 44.7997 50.2247 44.8577L43.6153 51.2371C43.5495 51.2988 43.4718 51.3466 43.3869 51.3776C43.302 51.4086 43.2117 51.4222 43.1214 51.4175C43.0304 51.41 42.9421 51.3836 42.862 51.3401C42.782 51.2966 42.712 51.2369 42.6565 51.1649L39.6423 47.2175C39.5406 47.0834 39.4965 46.9147 39.5196 46.7484C39.5428 46.582 39.6313 46.4315 39.7658 46.3299C39.8977 46.2216 40.0675 46.1697 40.2379 46.1856C40.404 46.2129 40.554 46.3003 40.6592 46.4309L42.7509 49.1732C42.8132 49.2506 42.8909 49.3145 42.9792 49.3608C43.0674 49.4071 43.1643 49.4348 43.2638 49.4423C43.3633 49.4497 43.4632 49.4367 43.5574 49.4041C43.6517 49.3714 43.7381 49.3199 43.8114 49.2526L49.3314 43.9412ZM9.44211 41.3216C9.44211 41.1302 9.51863 40.9467 9.65484 40.8114C9.79105 40.676 9.97579 40.6 10.1684 40.6H30.2874C30.48 40.6 30.6647 40.676 30.801 40.8114C30.9372 40.9467 31.0137 41.1302 31.0137 41.3216C31.0137 41.513 30.9372 41.6966 30.801 41.8319C30.6647 41.9673 30.48 42.0433 30.2874 42.0433H10.1684C9.97579 42.0433 9.79105 41.9673 9.65484 41.8319C9.51863 41.6966 9.44211 41.513 9.44211 41.3216ZM21.9928 59.3989C21.9928 59.5903 21.9163 59.7739 21.7801 59.9092C21.6439 60.0446 21.4592 60.1206 21.2665 60.1206H10.1684C9.97579 60.1206 9.79105 60.0446 9.65484 59.9092C9.51863 59.7739 9.44211 59.5903 9.44211 59.3989C9.44211 59.2076 9.51863 59.024 9.65484 58.8887C9.79105 58.7533 9.97579 58.6773 10.1684 58.6773H21.2811C21.4712 58.6811 21.6522 58.7588 21.7853 58.8937C21.9184 59.0286 21.9929 59.21 21.9928 59.3989ZM31.6892 54.8814C31.6892 55.0728 31.6126 55.2564 31.4764 55.3917C31.3402 55.527 31.1555 55.6031 30.9628 55.6031H10.1684C9.97579 55.6031 9.79105 55.527 9.65484 55.3917C9.51863 55.2564 9.44211 55.0728 9.44211 54.8814C9.44211 54.69 9.51863 54.5065 9.65484 54.3711C9.79105 54.2358 9.97579 54.1598 10.1684 54.1598H30.9774C31.1675 54.1636 31.3485 54.2412 31.4816 54.3762C31.6147 54.5111 31.6892 54.6925 31.6892 54.8814ZM9.44211 50.3567C9.44211 50.1653 9.51863 49.9817 9.65484 49.8464C9.79105 49.7111 9.97579 49.635 10.1684 49.635H29.4594C29.652 49.635 29.8367 49.7111 29.973 49.8464C30.1092 49.9817 30.1857 50.1653 30.1857 50.3567C30.1857 50.5481 30.1092 50.7316 29.973 50.867C29.8367 51.0023 29.652 51.0783 29.4594 51.0783H10.1684C9.97579 51.0783 9.79105 51.0023 9.65484 50.867C9.51863 50.7316 9.44211 50.5481 9.44211 50.3567ZM9.44211 45.8392C9.44211 45.6478 9.51863 45.4642 9.65484 45.3289C9.79105 45.1935 9.97579 45.1175 10.1684 45.1175H29.2197C29.4123 45.1175 29.5971 45.1935 29.7333 45.3289C29.8695 45.4642 29.946 45.6478 29.946 45.8392C29.946 46.0305 29.8695 46.2141 29.7333 46.3494C29.5971 46.4848 29.4123 46.5608 29.2197 46.5608H10.1684C9.97579 46.5608 9.79105 46.4848 9.65484 46.3494C9.51863 46.2141 9.44211 46.0305 9.44211 45.8392ZM24.1573 5.22473C24.1573 4.99779 24.225 4.77595 24.3519 4.58725C24.4788 4.39856 24.6592 4.25149 24.8702 4.16465C25.0812 4.0778 25.3134 4.05508 25.5374 4.09935C25.7614 4.14363 25.9672 4.25291 26.1287 4.41338C26.2902 4.57385 26.4002 4.7783 26.4448 5.00088C26.4893 5.22345 26.4665 5.45416 26.379 5.66383C26.2916 5.87349 26.1436 6.05269 25.9537 6.17877C25.7638 6.30486 25.5405 6.37215 25.3121 6.37215C25.0058 6.37215 24.7121 6.25126 24.4955 6.03608C24.2789 5.82089 24.1573 5.52904 24.1573 5.22473Z" fill="white" fill-opacity="0.7"/>
</g>
<defs>
<clipPath id="clip0_44_63">
<rect width="69" height="70" fill="white"/>
</clipPath>
</defs>
</svg>
