<svg width="40" height="42" viewBox="0 0 40 42" fill="none" xmlns="http://www.w3.org/2000/svg">
<path d="M20.4904 7.82112H8.10984C7.34277 7.82112 6.72095 8.43968 6.72095 9.2027C6.72095 9.96572 7.34277 10.5843 8.10984 10.5843H20.4904C21.2575 10.5843 21.8793 9.96572 21.8793 9.2027C21.8793 8.43968 21.2575 7.82112 20.4904 7.82112Z" fill="white" fill-opacity="0.75"/>
<path d="M14.9321 14.0576H8.10984C7.34277 14.0576 6.72095 14.6761 6.72095 15.4392C6.72095 16.2022 7.34277 16.8207 8.10984 16.8207H14.9321C15.6991 16.8207 16.3209 16.2022 16.3209 15.4392C16.3209 14.6761 15.6991 14.0576 14.9321 14.0576Z" fill="white" fill-opacity="0.75"/>
<path d="M8.10984 24.4885C8.8769 24.4885 9.49873 23.8699 9.49873 23.1069C9.49873 22.3439 8.8769 21.7253 8.10984 21.7253C7.34277 21.7253 6.72095 22.3439 6.72095 23.1069C6.72095 23.8699 7.34277 24.4885 8.10984 24.4885Z" fill="white" fill-opacity="0.75"/>
<path d="M8.10984 30.7001C8.8769 30.7001 9.49873 30.0815 9.49873 29.3185C9.49873 28.5555 8.8769 27.9369 8.10984 27.9369C7.34277 27.9369 6.72095 28.5555 6.72095 29.3185C6.72095 30.0815 7.34277 30.7001 8.10984 30.7001Z" fill="white" fill-opacity="0.75"/>
<path d="M28.6111 20.9655C29.3781 20.9655 29.9999 20.3469 29.9999 19.5839C29.9999 18.8209 29.3781 18.2023 28.6111 18.2023C27.844 18.2023 27.2222 18.8209 27.2222 19.5839C27.2222 20.3469 27.844 20.9655 28.6111 20.9655Z" fill="#64FFDA"/>
<path d="M28.6666 27.8734C24.0708 27.8734 20.3333 24.1555 20.3333 19.5839C20.3333 15.0122 24.0708 11.2944 28.6666 11.2944C33.2624 11.2944 36.9999 15.0122 36.9999 19.5839C36.9999 24.1555 33.2624 27.8734 28.6666 27.8734ZM28.6666 14.0576C25.6027 14.0576 23.111 16.5361 23.111 19.5839C23.111 22.6316 25.6027 25.1102 28.6666 25.1102C31.7305 25.1102 34.2221 22.6316 34.2221 19.5839C34.2221 16.5361 31.7305 14.0576 28.6666 14.0576Z" fill="#64FFDA"/>
<path d="M23.0515 36.4405C22.1362 36.4405 21.2084 36.2167 20.3529 35.7428C19.0571 35.0244 18.1196 33.8473 17.7126 32.4284C17.3071 31.0095 17.4807 29.5174 18.2029 28.2271L21.4348 22.4534L23.8612 23.7977L20.6293 29.5713C20.2682 30.2165 20.1821 30.9626 20.3848 31.6727C20.5876 32.3828 21.0571 32.9714 21.7057 33.3292C22.3543 33.6884 23.1057 33.7741 23.8182 33.5738C24.5321 33.372 25.1237 32.9051 25.4848 32.2599L29.2834 25.7817L31.6834 27.1743L27.8973 33.629C26.8918 35.4237 25.0015 36.4419 23.0529 36.4419L23.0515 36.4405Z" fill="#64FFDA"/>
<path d="M34.175 36.4391C32.2236 36.4391 30.3264 35.4154 29.3125 33.6028L27.4111 30.363L29.8111 28.9703L31.725 32.2336C32.4834 33.589 34.1764 34.0684 35.5167 33.3278C36.1653 32.9686 36.6334 32.3801 36.8361 31.6699C37.0389 30.9598 36.9528 30.2138 36.5917 29.5686L33.3861 23.8433L35.8125 22.4976L39.0181 28.2229C39.7403 29.5133 39.9139 31.0054 39.5084 32.4257C39.1028 33.8459 38.1639 35.023 36.8681 35.7415C36.0153 36.214 35.0889 36.4391 34.175 36.4391Z" fill="#64FFDA"/>
<path d="M22.4737 41.7237H8.5848C3.98202 41.7237 0.251465 38.0128 0.251465 33.4342V8.56579C0.251465 3.98724 3.98202 0.276321 8.5848 0.276321H22.4737C26.5209 0.276321 29.9029 3.16106 30.6529 6.97145C30.8167 7.80316 30.1265 8.56579 29.2737 8.56579C28.5973 8.56579 28.0487 8.07672 27.9084 7.41908C27.3765 4.91981 25.1417 3.03948 22.4737 3.03948H8.5848C5.51674 3.03948 3.02924 5.51389 3.02924 8.56579V33.4342C3.02924 36.4861 5.51674 38.9605 8.5848 38.9605H22.4737C23.8612 38.9605 25.1931 38.4383 26.2056 37.5265C26.7042 37.0774 27.4348 37.007 27.9792 37.3993C28.7084 37.9257 28.7362 38.9757 28.0681 39.5753C26.5487 40.9417 24.5542 41.7237 22.4737 41.7237Z" fill="white" fill-opacity="0.75"/>
</svg>
