<svg width="56" height="70" viewBox="0 0 56 70" fill="none" xmlns="http://www.w3.org/2000/svg">
<g clip-path="url(#clip0_55_33)">
<path d="M53.1441 8.56202L29.2925 0.220167C28.4553 -0.0722496 27.5448 -0.0722496 26.7076 0.220167L2.85605 8.56202C2.08216 8.83252 1.41109 9.33932 0.936084 10.012C0.461082 10.6847 0.205747 11.4898 0.205566 12.3155V35.691C0.205566 50.0297 10.3012 63.07 26.553 69.7166C27.4802 70.0922 28.5154 70.0922 29.4426 69.7166C45.696 63.0677 55.7923 50.0297 55.7923 35.691V12.3155C55.7923 11.4901 55.5373 10.6851 55.0627 10.0125C54.5881 9.33986 53.9175 8.8329 53.1441 8.56202ZM54.674 35.691C54.674 49.5606 44.846 62.1978 29.026 68.67C28.3692 68.937 27.6354 68.937 26.9786 68.67C11.158 62.1978 1.33061 49.5606 1.33061 35.691V12.3155C1.33095 11.7245 1.51381 11.1482 1.85379 10.6667C2.19378 10.1852 2.67403 9.82228 3.22789 9.62839L27.0755 1.28597C27.6742 1.07775 28.3248 1.07775 28.9235 1.28597L52.7744 9.62839C53.3282 9.82237 53.8083 10.1853 54.1482 10.6668C54.4881 11.1483 54.6709 11.7245 54.6712 12.3155L54.674 35.691Z" fill="white" fill-opacity="0.7"/>
<path d="M49.9405 11.4258L28.8035 4.13401C28.2837 3.95533 27.7187 3.95533 27.199 4.13401L6.06193 11.4258C5.46029 11.6325 4.9384 12.0204 4.56884 12.5357C4.19928 13.0509 4.00045 13.6679 4 14.3008V35.8365C4 47.9061 12.7107 59.3598 26.7397 65.7281C27.1345 65.9073 27.5635 66 27.9976 66C28.4316 66 28.8606 65.9073 29.2554 65.7281C43.2845 59.3598 52 47.9061 52 35.8365V14.3008C51.9997 13.6682 51.8012 13.0514 51.4322 12.5362C51.0631 12.021 50.5417 11.6329 49.9405 11.4258ZM50.7817 35.8365C50.7817 47.4258 42.3415 58.4581 28.7547 64.6258C28.5186 64.733 28.262 64.7884 28.0024 64.7884C27.7429 64.7884 27.4863 64.733 27.2502 64.6258C13.6609 58.4581 5.21827 47.4258 5.21827 35.8365V14.3008C5.21837 13.92 5.33773 13.5488 5.55977 13.2386C5.7818 12.9284 6.09549 12.6947 6.45726 12.5699L27.5943 5.27744C27.8552 5.18783 28.1387 5.18783 28.3996 5.27744L49.5367 12.5699C49.8984 12.6947 50.2121 12.9284 50.4341 13.2386C50.6562 13.5488 50.7755 13.92 50.7756 14.3008L50.7817 35.8365Z" fill="white" fill-opacity="0.7"/>
<path d="M41.8582 31.32C41.8586 30.955 41.7258 30.6004 41.4811 30.3131C41.2364 30.0257 40.8939 29.822 40.5084 29.7348C40.1229 29.6475 39.7167 29.6816 39.3548 29.8316C38.9929 29.9817 38.6963 30.239 38.5123 30.5624L34.2762 29.412V29.0896C34.6589 28.9484 34.9761 28.6892 35.1735 28.3563C35.3709 28.0235 35.4361 27.6379 35.3579 27.2657C35.2797 26.8935 35.0629 26.558 34.7449 26.3167C34.4269 26.0754 34.0274 25.9434 33.6151 25.9434C33.2027 25.9434 32.8032 26.0754 32.4852 26.3167C32.1672 26.558 31.9505 26.8935 31.8722 27.2657C31.794 27.6379 31.8592 28.0235 32.0566 28.3563C32.254 28.6892 32.5712 28.9484 32.9539 29.0896V29.2841C31.5502 28.3088 29.9448 27.6068 28.236 27.221C29.2122 26.6139 29.9507 25.7348 30.343 24.713C30.7352 23.6913 30.7605 22.5808 30.4151 21.5448C30.0697 20.5089 29.3719 19.6022 28.4242 18.958C27.4765 18.3138 26.329 17.9662 25.1503 17.9662C23.9717 17.9662 22.8242 18.3138 21.8765 18.958C20.9288 19.6022 20.231 20.5089 19.8856 21.5448C19.5402 22.5808 19.5655 23.6913 19.9577 24.713C20.35 25.7348 21.0885 26.6139 22.0647 27.221C19.2582 27.8591 16.7647 29.342 14.9811 31.4337C13.1976 33.5254 12.2265 36.1055 12.2227 38.7632C12.2227 38.9244 12.2923 39.079 12.4163 39.193C12.5403 39.3069 12.7085 39.371 12.8838 39.371H22.9099C23.3495 40.0428 23.9707 40.5988 24.7131 40.9847C25.4555 41.3706 26.2938 41.5734 27.1467 41.5734C27.9996 41.5734 28.838 41.3706 29.5804 40.9847C30.3228 40.5988 30.944 40.0428 31.3836 39.371H32.0923C31.9361 39.6168 31.8536 39.8963 31.8532 40.181V42.4848H30.0549C29.5843 42.4852 29.1331 42.6572 28.8003 42.9632C28.4675 43.2691 28.2803 43.6839 28.2799 44.1166V45.1406C28.2798 45.2204 28.2969 45.2995 28.3301 45.3733C28.3633 45.447 28.412 45.5141 28.4734 45.5705C28.5348 45.627 28.6077 45.6717 28.688 45.7023C28.7682 45.7328 28.8542 45.7485 28.9411 45.7484H38.2848C38.3717 45.7485 38.4577 45.7328 38.5379 45.7023C38.6182 45.6717 38.6911 45.627 38.7525 45.5705C38.8139 45.5141 38.8626 45.447 38.8958 45.3733C38.929 45.2995 38.946 45.2204 38.946 45.1406V44.1171C38.9455 43.6849 38.7588 43.2705 38.4267 42.9647C38.0946 42.6588 37.6442 42.4865 37.1741 42.4853H35.3758V40.1815C35.3757 39.8969 35.2934 39.6173 35.1373 39.3715H35.846C36.2718 40.0546 36.89 40.6197 37.6355 41.0073C38.381 41.3949 39.2263 41.5907 40.0826 41.5741C42.6711 41.5741 44.7772 39.8397 44.7772 37.7076C44.7772 36.4954 43.3158 34.5242 41.5334 32.2574C41.7447 31.9834 41.8582 31.6558 41.8582 31.32ZM38.6318 32.2574C38.0844 32.9537 37.5671 33.6223 37.1133 34.251C36.5481 32.989 35.7513 31.8257 34.7575 30.8118L38.3853 31.7955C38.4405 31.9605 38.5233 32.1164 38.6318 32.2574ZM39.7425 32.9211C39.9681 32.9626 40.2003 32.9626 40.4259 32.9211C41.3218 34.0594 42.806 35.9542 43.2947 37.0998H36.8726C37.3608 35.9533 38.8476 34.0565 39.7414 32.9211H39.7425ZM40.0842 30.9037C40.1739 30.9036 40.2616 30.928 40.3362 30.9738C40.4108 31.0195 40.469 31.0846 40.5034 31.1607C40.5378 31.2369 40.5468 31.3207 40.5293 31.4016C40.5118 31.4825 40.4687 31.5568 40.4052 31.6151C40.3418 31.6734 40.261 31.7131 40.173 31.7292C40.085 31.7452 39.9939 31.7369 39.911 31.7053C39.8282 31.6737 39.7574 31.6202 39.7076 31.5516C39.6578 31.483 39.6313 31.4024 39.6314 31.32C39.6316 31.2098 39.6792 31.1041 39.7638 31.0261C39.8485 30.9481 39.9633 30.9041 40.0831 30.9037H40.0842ZM33.6161 27.1598C33.7058 27.1597 33.7935 27.184 33.8681 27.2297C33.9427 27.2755 34.0009 27.3405 34.0353 27.4167C34.0697 27.4928 34.0787 27.5766 34.0613 27.6574C34.0438 27.7383 34.0007 27.8126 33.9373 27.8709C33.874 27.9293 33.7932 27.969 33.7053 27.9851C33.6173 28.0012 33.5262 27.993 33.4433 27.9615C33.3604 27.93 33.2896 27.8765 33.2398 27.808C33.19 27.7395 33.1634 27.6589 33.1634 27.5765C33.1635 27.4662 33.2111 27.3605 33.2957 27.2825C33.3804 27.2044 33.4952 27.1603 33.6151 27.1598H33.6161ZM20.9672 23.0307C20.9672 22.2698 21.2126 21.526 21.6725 20.8933C22.1323 20.2606 22.7859 19.7676 23.5506 19.4764C24.3153 19.1852 25.1567 19.1091 25.9685 19.2576C26.7803 19.406 27.526 19.7725 28.1112 20.3106C28.6964 20.8486 29.0949 21.5342 29.2563 22.2804C29.4177 23.0267 29.3348 23.8003 29.018 24.5032C28.7012 25.2062 28.1647 25.807 27.4765 26.2296C26.7882 26.6523 25.9791 26.8778 25.1514 26.8777C24.042 26.8766 22.9783 26.4709 22.1939 25.7496C21.4095 25.0284 20.9683 24.0506 20.9672 23.0307ZM13.5624 38.1559C13.6786 36.2902 14.3258 34.4854 15.4391 32.9219C16.5523 31.3583 18.0927 30.091 19.9061 29.2467C21.7195 28.4023 23.7423 28.0105 25.7721 28.1105C27.8019 28.2105 29.7676 28.7988 31.4724 29.8165L28.7173 30.5648C28.6065 30.3646 28.4518 30.1875 28.263 30.0448C28.0743 29.9021 27.8554 29.7968 27.6203 29.7354C27.3852 29.6741 27.1388 29.6582 26.8966 29.6885C26.6544 29.7189 26.4217 29.7949 26.213 29.9118C26.0042 30.0288 25.8241 30.1841 25.6838 30.3681C25.5434 30.5521 25.446 30.7607 25.3975 30.981C25.349 31.2012 25.3506 31.4283 25.4021 31.6479C25.4536 31.8676 25.5539 32.0751 25.6967 32.2574C23.9148 34.5237 22.4534 36.4944 22.4534 37.7076C22.4539 37.8575 22.4649 38.0072 22.4862 38.1559H13.5624ZM27.1454 31.7376C27.0557 31.7376 26.9681 31.7132 26.8936 31.6674C26.819 31.6216 26.7609 31.5565 26.7266 31.4804C26.6923 31.4042 26.6833 31.3205 26.7008 31.2396C26.7183 31.1588 26.7615 31.0845 26.8249 31.0263C26.8883 30.968 26.969 30.9283 27.057 30.9122C27.1449 30.8962 27.236 30.9044 27.3189 30.9359C27.4017 30.9675 27.4725 31.0209 27.5223 31.0894C27.5721 31.1579 27.5987 31.2385 27.5987 31.3209C27.5984 31.4311 27.5507 31.5367 27.4659 31.6146C27.3812 31.6925 27.2663 31.7364 27.1465 31.7367L27.1454 31.7376ZM26.8074 32.9211C27.0328 32.9626 27.2649 32.9626 27.4902 32.9211C28.3894 34.0604 29.8704 35.9547 30.3591 37.0998H23.9365C24.4273 35.9533 25.9109 34.057 26.8074 32.9211ZM27.1486 40.3605C26.4356 40.3905 25.7311 40.2079 25.1401 39.8399C24.5492 39.4719 24.1034 38.9381 23.8693 38.3183H30.4284C30.1937 38.9382 29.7474 39.4718 29.156 39.8395C28.5645 40.2071 27.8597 40.3892 27.1465 40.3585L27.1486 40.3605ZM28.5978 32.2574C28.706 32.1163 28.7894 31.9604 28.8448 31.7955L32.9539 30.6796V38.1559H31.8083C31.8296 38.0072 31.8406 37.8575 31.8411 37.7076C31.8411 36.4959 30.3802 34.5247 28.5978 32.2574ZM37.6253 44.1171V44.5333H29.6048V44.1171C29.605 44.0067 29.6527 43.901 29.7376 43.8229C29.8225 43.7449 29.9376 43.701 30.0576 43.7009H37.1741C37.2934 43.7026 37.4073 43.7471 37.4916 43.8248C37.5758 43.9025 37.6238 44.0074 37.6253 44.1171ZM33.1755 42.4853V40.1815C33.1795 40.0769 33.2275 39.9777 33.3094 39.9049C33.3914 39.8322 33.5009 39.7915 33.6148 39.7915C33.7287 39.7915 33.8382 39.8322 33.9201 39.9049C34.0021 39.9777 34.0501 40.0769 34.0541 40.1815V42.4853H33.1755ZM34.2762 38.1578V32.1704C35.1445 33.1836 35.8053 34.3334 36.2263 35.5638C35.7664 36.2073 35.4794 36.9421 35.389 37.7076C35.3893 37.8575 35.4001 38.0072 35.4213 38.1559L34.2762 38.1578ZM40.0831 40.3585C39.3701 40.3886 38.6656 40.206 38.0746 39.838C37.4837 39.47 37.0379 38.9362 36.8039 38.3163H43.365C43.1308 38.9366 42.6846 39.4706 42.0931 39.8387C41.5017 40.2067 40.7966 40.3891 40.0831 40.3585ZM13.9929 43.2623C13.9929 43.1011 14.0626 42.9465 14.1866 42.8325C14.3106 42.7185 14.4787 42.6545 14.6541 42.6545H21.9504C22.1258 42.6545 22.2939 42.7185 22.4179 42.8325C22.5419 42.9465 22.6116 43.1011 22.6116 43.2623C22.6116 43.4235 22.5419 43.5781 22.4179 43.6921C22.2939 43.806 22.1258 43.8701 21.9504 43.8701H14.6541C14.4787 43.8701 14.3106 43.806 14.1866 43.6921C14.0626 43.5781 13.9929 43.4235 13.9929 43.2623ZM27.0629 46.8429C27.063 46.9227 27.0459 47.0018 27.0127 47.0756C26.9795 47.1493 26.9308 47.2164 26.8694 47.2728C26.808 47.3293 26.7351 47.374 26.6548 47.4046C26.5746 47.4351 26.4886 47.4508 26.4017 47.4507H14.6541C14.4787 47.4507 14.3106 47.3867 14.1866 47.2727C14.0626 47.1587 13.9929 47.0041 13.9929 46.8429C13.9929 46.6817 14.0626 46.5271 14.1866 46.4131C14.3106 46.2992 14.4787 46.2351 14.6541 46.2351H26.4017C26.5771 46.2351 26.7453 46.2992 26.8692 46.4131C26.9932 46.5271 27.0629 46.6817 27.0629 46.8429Z" fill="white" fill-opacity="0.7"/>
</g>
<defs>
<clipPath id="clip0_55_33">
<rect width="56" height="70" fill="white"/>
</clipPath>
</defs>
</svg>
