<svg width="262" height="43" viewBox="0 0 262 43" fill="none" xmlns="http://www.w3.org/2000/svg">
<path d="M0.251232 13.8137H7.46521C12.6873 13.8137 15.0201 16.3938 15.0201 19.9233C15.0201 22.0375 14.1229 24.0621 11.9694 25.0833V25.1729L16.6173 32.68H12.113L7.80617 25.8537H4.27096V32.68H0.251232V13.8137ZM7.17808 22.8079C9.86986 22.8079 11.0184 21.9838 11.0184 19.995C11.0184 18.3825 10.2108 17.2358 7.39343 17.2358H4.25302V22.79H7.16014L7.17808 22.8079Z" fill="white"/>
<path d="M51.6643 22.1271C53.7818 22.8796 55.02 24.5279 55.02 26.9825C55.02 30.1896 52.8127 32.6979 47.8958 32.6979H39.2821V13.8317H47.3215C52.059 13.8317 53.8177 15.9817 53.8177 18.6871C53.8177 19.9233 53.4947 21.2133 51.6643 22.0733V22.1629V22.1271ZM47.9496 21.5537C49.0084 21.5537 49.9056 20.6042 49.9056 19.2604C49.9056 17.7733 49.0981 16.9671 46.7832 16.9671H43.3018V21.5537H47.9496ZM43.3018 24.0979V29.5267H47.4471C49.8877 29.5267 50.9464 28.7563 50.9464 26.8929C50.9464 25.2088 50.0492 24.1158 47.5369 24.1158H43.3197L43.3018 24.0979Z" fill="white"/>
<path d="M62.0007 13.8137V29.1325H71.9423V32.68H57.981V13.8137H62.0007Z" fill="white"/>
<path d="M97.7655 22.9871L91.1617 13.8137H95.9351L100.637 20.2996H100.726C100.726 20.2996 101.48 18.9558 101.839 18.4363L105.177 13.8137H109.861L103.221 23.0408L110.148 32.68H105.32L100.35 25.8537H100.296C100.296 25.8537 99.237 27.6096 99.0037 27.95L95.6121 32.68H90.8745L97.7655 22.9871Z" fill="white"/>
<path d="M90.1567 19.6367C89.6901 18.49 88.9903 17.4508 88.111 16.5729C87.2316 15.695 86.1908 14.9963 85.0423 14.5304C83.8938 14.0646 82.6556 13.8137 81.4174 13.8137C79.5511 13.8137 77.7207 14.3692 76.1595 15.4083C74.5982 16.4475 73.3959 17.9167 72.6781 19.6367C71.9603 21.3567 71.7808 23.2558 72.1397 25.0833C72.4986 26.9108 73.4138 28.595 74.7238 29.9208C76.0518 31.2467 77.7386 32.1425 79.569 32.5008C81.3994 32.8592 83.3016 32.68 85.0423 31.9633C86.7651 31.2467 88.2545 30.0463 89.2953 28.4875C90.3362 26.9288 90.8925 25.1192 90.8925 23.2379C90.8925 22.0017 90.6592 20.7654 90.1747 19.6187L90.1567 19.6367ZM86.119 23.2379C86.119 25.9254 83.9836 28.0575 81.4174 28.0575C78.8512 28.0575 76.6978 25.9254 76.6978 23.2379C76.6978 20.5504 78.8333 18.4183 81.4174 18.4183C84.0015 18.4183 86.119 20.5504 86.119 23.2379Z" fill="white"/>
<path d="M35.693 19.6367C35.2264 18.49 34.5266 17.4508 33.6473 16.5729C32.7679 15.695 31.7271 14.9963 30.5786 14.5304C29.4301 14.0646 28.1919 13.8137 26.9537 13.8137C25.0874 13.8137 23.257 14.3692 21.6958 15.4083C20.1345 16.4475 18.9322 17.9167 18.2144 19.6367C17.4966 21.3567 17.3171 23.2558 17.676 25.0833C18.0349 26.9108 18.9501 28.595 20.2601 29.9208C21.5881 31.2467 23.2749 32.1425 25.1053 32.5008C26.9358 32.8592 28.8379 32.68 30.5786 31.9633C32.3014 31.2467 33.7908 30.0463 34.8316 28.4875C35.8725 26.9288 36.4288 25.1192 36.4288 23.2379C36.4288 22.0017 36.1955 20.7654 35.711 19.6187L35.693 19.6367ZM31.6553 23.2379C31.6553 25.9254 29.5199 28.0575 26.9537 28.0575C24.3875 28.0575 22.2341 25.9254 22.2341 23.2379C22.2341 20.5504 24.3696 18.4183 26.9537 18.4183C29.5378 18.4183 31.6553 20.5504 31.6553 23.2379Z" fill="white"/>
<path d="M130.444 16.1967L130.928 14.3333C131.772 14.7275 133.118 15.1575 134.428 15.1575C136.079 15.1575 136.778 14.4767 136.778 13.6167C136.778 13.2225 136.581 12.9 136.204 12.7029C135.827 12.5058 135.038 12.3804 134.105 12.2729C133.046 12.1654 132.238 11.9683 131.592 11.61C130.641 11.0725 130.282 10.1767 130.282 9.26291C130.282 7.39958 132.005 6.03792 134.571 6.03792C136.078 6.03792 137.353 6.3425 138.34 6.79042L137.819 8.58209C137.048 8.25959 135.773 7.93708 134.643 7.93708C133.046 7.93708 132.543 8.61791 132.543 9.26291C132.543 9.60333 132.669 9.92583 133.118 10.1587C133.548 10.3558 134.248 10.4275 135.145 10.5708C136.132 10.6963 137.03 10.8933 137.604 11.2158C138.519 11.7354 138.968 12.5596 138.968 13.6167C138.968 15.5517 137.478 17.0567 134.571 17.0567C132.866 17.0567 131.485 16.7342 130.408 16.1967H130.444Z" fill="white"/>
<path d="M143.077 12.3088V14.8887H149.071V16.8596H140.816V6.25291H148.784V8.24167H143.077V10.5888H148.102V12.3267H143.077V12.3088Z" fill="white"/>
<path d="M153.737 11.395L150.022 6.23501H152.696L155.352 9.87209H155.405C155.405 9.87209 155.818 9.11959 156.034 8.83292L157.9 6.23501H160.538L156.805 11.4308L160.699 16.8417H157.99L155.19 13.0075H155.154C155.154 13.0075 154.562 13.9929 154.419 14.19L152.516 16.8596H149.842L153.719 11.4129L153.737 11.395Z" fill="white"/>
<path d="M171.951 6.23501L176.509 16.8417H174.033L172.974 14.3692H168.577L167.536 16.8417H165.06L169.618 6.23501H171.969H171.951ZM169.169 12.7208H172.364L171.7 11.18C171.413 10.5171 170.802 8.60001 170.802 8.60001H170.731C170.731 8.60001 170.103 10.4992 169.833 11.18L169.169 12.7208Z" fill="white"/>
<path d="M184.872 10.9112C186.074 11.3233 186.756 12.2729 186.756 13.6346C186.756 15.4442 185.518 16.8417 182.754 16.8417H177.909V6.23501H182.431C185.105 6.23501 186.074 7.45334 186.074 8.95834C186.074 9.65709 185.894 10.3737 184.872 10.8575V10.9112ZM182.79 10.5888C183.382 10.5888 183.885 10.0513 183.885 9.29876C183.885 8.45667 183.436 8.00875 182.126 8.00875H180.17V10.5888H182.79ZM180.17 12.0221V15.0679H182.503C183.867 15.0679 184.477 14.6379 184.477 13.5808C184.477 12.6313 183.974 12.0221 182.557 12.0221H180.188H180.17Z" fill="white"/>
<path d="M198.366 6.23501V12.6313C198.366 15.6233 196.141 17.0388 193.431 17.0388C190.722 17.0388 188.496 15.6413 188.496 12.6313V6.23501H190.758V12.5596C190.758 14.0825 191.637 15.05 193.431 15.05C195.226 15.05 196.105 14.1004 196.105 12.5596V6.23501H198.366Z" fill="white"/>
<path d="M200.233 16.1967L200.717 14.3333C201.561 14.7275 202.906 15.1575 204.216 15.1575C205.867 15.1575 206.567 14.4767 206.567 13.6167C206.567 13.2225 206.37 12.9 205.993 12.7029C205.616 12.5058 204.827 12.3804 203.893 12.2729C202.835 12.1654 202.027 11.9683 201.381 11.61C200.43 11.0725 200.071 10.1767 200.071 9.26291C200.071 7.39958 201.794 6.03792 204.36 6.03792C205.867 6.03792 207.141 6.3425 208.128 6.79042L207.608 8.58209C206.836 8.25959 205.562 7.93708 204.432 7.93708C202.835 7.93708 202.332 8.61791 202.332 9.26291C202.332 9.60333 202.458 9.92583 202.906 10.1587C203.337 10.3558 204.037 10.4275 204.934 10.5708C205.921 10.6963 206.819 10.8933 207.393 11.2158C208.308 11.7354 208.757 12.5596 208.757 13.6167C208.757 15.5517 207.267 17.0567 204.36 17.0567C202.655 17.0567 201.273 16.7342 200.197 16.1967H200.233Z" fill="white"/>
<path d="M212.884 12.3088V14.8887H218.878V16.8596H210.623V6.25291H218.591V8.24167H212.884V10.5888H217.909V12.3267H212.884V12.3088Z" fill="white"/>
<path d="M121.13 5.21376H119.336V41.5667H121.13V5.21376Z" fill="white"/>
<path d="M147.097 34.1492C146.164 37.9117 142.88 40.4021 139.004 40.4021C133.979 40.4021 130.569 36.4246 130.569 32.1246C130.569 28.0575 133.728 23.9008 138.968 23.9008C144.208 23.9008 146.666 27.7529 147.097 30.2433H142.808C142.359 29.0608 141.139 27.4663 138.932 27.4663C136.186 27.4663 134.643 29.8492 134.643 32.1067C134.643 34.5075 136.294 36.8367 138.95 36.8367C141.606 36.8367 142.539 34.7046 142.808 34.1492H147.097Z" fill="white"/>
<path d="M150.183 24.3846H154.903V36.7112H160.376V40.2767H150.183V24.3667V24.3846Z" fill="white"/>
<path d="M168.559 40.1692H163.445L170.767 24.2592H174.84L181.928 40.1692H176.76L175.881 37.8758H169.403L168.559 40.1692ZM172.579 29.0967L170.587 34.6329H174.661L172.579 29.0967Z" fill="white"/>
<path d="M184.997 24.1517H189.717V40.0617H184.997V24.1517Z" fill="white"/>
<path d="M192.803 39.9362V24.0263H199.12L202.583 34.2746L205.957 24.0263H212.292V39.9362H207.949L208.093 28.0396L204.091 39.9362H200.968L196.967 28.0396L197.11 39.9362H192.767H192.803Z" fill="white"/>
<path d="M221.354 34.8479C221.354 36.6933 223.041 37.0158 223.795 37.0158C225.212 37.0158 226.074 36.2275 226.074 35.4929C226.074 34.6508 225.087 34.4 221.48 33.3608C219.829 32.9129 215.737 31.7842 215.737 28.81C215.737 25.6029 220.026 23.9187 223.956 23.9187C227.186 23.9187 231.762 25.0296 231.852 28.8638H225.912C225.787 28.3263 225.589 27.3229 223.759 27.3229C222.718 27.3229 221.695 27.8246 221.695 28.5771C221.695 29.3296 222.323 29.5088 226.54 30.7988C230.919 32.1246 232.032 33.5042 232.032 35.3496C232.032 37.8938 230.058 40.4379 223.849 40.4379C217.639 40.4379 215.217 37.9833 215.378 34.8658H221.336L221.354 34.8479Z" fill="white"/>
<path fill-rule="evenodd" clip-rule="evenodd" d="M261.731 30.2075C261.731 30.4942 261.498 30.745 261.21 30.745H251.394L241.596 36.3887C241.345 36.5321 241.022 36.4425 240.879 36.1917L226.738 11.7354C226.594 11.4846 226.684 11.1621 226.935 11.0188L232.821 7.6325L232.39 6.03792C232.319 5.75125 232.48 5.46459 232.767 5.39292L239.317 3.63708V1.97083C239.317 1.68416 239.551 1.43334 239.856 1.43334H256.311C256.455 1.43334 256.581 1.48708 256.688 1.59458L261.623 6.52166C261.749 6.64708 261.785 6.79041 261.785 6.95166V30.2254L261.731 30.2075ZM247.5 31.7663L240.609 33.6117L241.525 35.2063L247.482 31.7663H247.5ZM239.066 30.9421L233.09 8.67166L227.922 11.6458L239.084 30.9421H239.066ZM247.231 30.7271H240.107L240.591 32.5008L247.249 30.7271H247.231ZM239.299 27.6992V4.71208L233.539 6.25291L239.299 27.6992ZM240.358 29.67H260.672V7.39958H256.275C255.988 7.39958 255.737 7.16667 255.737 6.86209V2.47249H240.34V29.6521L240.358 29.67ZM259.918 6.3425L256.796 3.225V6.3425H259.918Z" fill="white"/>
</svg>
