<svg width="27" height="26" viewBox="0 0 27 26" fill="none" xmlns="http://www.w3.org/2000/svg">
<path d="M20.533 6.62223V16.986C20.533 17.1975 20.449 17.4003 20.2995 17.5498C20.15 17.6993 19.9472 17.7833 19.7357 17.7833C19.5243 17.7833 19.3215 17.6993 19.172 17.5498C19.0225 17.4003 18.9385 17.1975 18.9385 16.986V8.54651L7.54431 19.9417C7.39472 20.0913 7.19183 20.1754 6.98028 20.1754C6.76872 20.1754 6.56584 20.0913 6.41625 19.9417C6.26666 19.7921 6.18262 19.5892 6.18262 19.3777C6.18262 19.1661 6.26666 18.9633 6.41625 18.8137L17.8115 7.41945H9.37193C9.16049 7.41945 8.95772 7.33545 8.80821 7.18595C8.6587 7.03644 8.57471 6.83366 8.57471 6.62223C8.57471 6.41079 8.6587 6.20802 8.80821 6.05851C8.95772 5.909 9.16049 5.82501 9.37193 5.82501H19.7357C19.9472 5.82501 20.15 5.909 20.2995 6.05851C20.449 6.20802 20.533 6.41079 20.533 6.62223Z" fill="black"/>
</svg>
