<svg width="30" height="30" viewBox="0 0 30 30" fill="none" xmlns="http://www.w3.org/2000/svg">
<mask id="mask0_379_40" style="mask-type:alpha" maskUnits="userSpaceOnUse" x="0" y="0" width="30" height="30">
<rect width="30" height="30" fill="#D9D9D9"/>
</mask>
<g mask="url(#mask0_379_40)">
<path d="M15.0022 26.875C13.3597 26.875 11.8158 26.5633 10.3706 25.94C8.92542 25.3167 7.66833 24.4707 6.59937 23.4022C5.53042 22.3336 4.68406 21.0771 4.06031 19.6325C3.43677 18.1879 3.125 16.6445 3.125 15.0022C3.125 13.3597 3.43677 11.8158 4.06031 10.3706C4.68365 8.92542 5.52969 7.66833 6.59844 6.59937C7.66719 5.53042 8.92396 4.68406 10.3687 4.06031C11.8135 3.43677 13.3573 3.125 15 3.125C16.3167 3.125 17.5625 3.32292 18.7375 3.71875C19.9125 4.11458 20.9904 4.66667 21.9713 5.375L20.6153 6.76219C19.8076 6.20594 18.9327 5.77323 17.9906 5.46406C17.0485 5.15469 16.0517 5 15 5C12.2292 5 9.86979 5.97396 7.92188 7.92188C5.97396 9.86979 5 12.2292 5 15C5 17.7708 5.97396 20.1302 7.92188 22.0781C9.86979 24.026 12.2292 25 15 25C17.7708 25 20.1302 24.026 22.0781 22.0781C24.026 20.1302 25 17.7708 25 15C25 14.5608 24.9711 14.1266 24.9134 13.6972C24.8557 13.2678 24.7692 12.8503 24.6537 12.4447L26.1681 10.9184C26.3973 11.5609 26.5724 12.222 26.6934 12.9016C26.8145 13.5809 26.875 14.2804 26.875 15C26.875 16.6427 26.5633 18.1865 25.94 19.6313C25.3167 21.076 24.4707 22.3328 23.4022 23.4016C22.3336 24.4703 21.0771 25.3164 19.6325 25.9397C18.1879 26.5632 16.6445 26.875 15.0022 26.875ZM13.2259 20.3172L8.34625 15.4375L9.66344 14.1203L13.2259 17.6828L25.5578 5.33187L26.875 6.64906L13.2259 20.3172Z" fill="#7397FB"/>
</g>
</svg>
