<svg width="40" height="52" viewBox="0 0 40 52" fill="none" xmlns="http://www.w3.org/2000/svg">
<path d="M36.8478 11.0201C36.8478 8.77398 33.3136 7.31122 28.6686 6.5483C28.2995 4.54969 27.5572 1.969 26.096 0.748715C25.781 0.474848 25.4125 0.268734 25.0136 0.143323C24.6146 0.0179113 24.1939 -0.0240874 23.7779 0.0199653C22.0782 0.202881 20.7505 1.44899 20.2508 1.91807L20.2442 1.92423C18.3563 0.205724 17.7646 -0.0814095 16.4446 0.017127C13.387 0.243709 12.1743 3.90184 11.6952 6.5545C7.06781 7.31909 3.55143 8.77977 3.55143 11.0201C3.55143 12.8032 5.78024 14.0921 9.02233 14.9297C8.84096 15.445 8.69701 15.9725 8.59159 16.5082C8.044 16.7174 2.67153 18.8589 0.694118 23.0606C0.592881 23.2758 0.574548 23.5205 0.642596 23.7483C0.710643 23.976 0.860341 24.171 1.06331 24.2963C2.77383 25.3525 6.18104 27.9299 7.96356 30.777C4.89658 31.4241 2.15144 33.1122 0.198688 35.5518C0.0649485 35.7272 -0.00500022 35.9426 0.00027828 36.1626C0.00555678 36.3827 0.0857504 36.5945 0.227747 36.7634C0.299201 36.8482 8.98119 40.7533 6.72506 50.4173C6.7198 50.5446 6.73981 50.6717 6.78394 50.7913C6.82806 50.9109 6.89544 51.0207 6.98223 51.1144C7.06902 51.2081 7.17352 51.2839 7.28976 51.3375C7.406 51.391 7.53171 51.4213 7.6597 51.4265C7.67352 51.427 7.68686 51.4275 7.70019 51.4275C7.95191 51.4273 8.19383 51.3304 8.37538 51.157C8.55693 50.9836 8.66406 50.747 8.67438 50.4969C9.25652 36.3431 3.91921 38.4966 2.21994 36.1607C3.90215 34.3679 6.10342 33.1401 8.51862 32.6474C8.62466 32.6297 8.72699 32.5945 8.82139 32.5433C9.13591 33.3879 9.19152 34.3062 8.98119 35.1822C8.91504 35.4311 8.95095 35.6958 9.08102 35.9183C9.21109 36.1408 9.42467 36.3028 9.67479 36.3687C9.79867 36.4015 9.92784 36.4097 10.0549 36.3928C10.182 36.3759 10.3044 36.3342 10.4152 36.2701C10.5261 36.206 10.6231 36.1208 10.7007 36.0193C10.7783 35.9178 10.8351 35.8021 10.8676 35.6788C12.3311 30.184 5.27449 24.8052 2.86259 23.154C4.28657 20.8979 6.95834 19.3995 8.37425 18.7244C8.37796 20.2845 8.70055 21.8274 9.32242 23.2596C9.94429 24.6918 10.8525 25.9832 11.9917 27.0555C15.6785 40.3427 14.2096 42.1155 12.3173 50.2382C12.2882 50.3624 12.284 50.4911 12.3049 50.6169C12.3259 50.7427 12.3716 50.8631 12.4394 50.9714C12.5072 51.0796 12.5958 51.1735 12.7001 51.2476C12.8044 51.3218 12.9224 51.3748 13.0473 51.4036C13.1722 51.4323 13.3016 51.4363 13.428 51.4153C13.5545 51.3943 13.6755 51.3487 13.7843 51.2811C13.893 51.2136 13.9873 51.1253 14.0617 51.0215C14.1361 50.9177 14.1892 50.8003 14.218 50.676C15.6844 44.341 16.5906 45.9679 15.9621 38.2119C17.1408 38.889 18.4723 39.2591 19.8332 39.2879C21.194 39.3167 22.5401 39.0032 23.7467 38.3766C23.7467 47.0608 23.6515 43.1585 25.4538 50.676C25.4826 50.8003 25.5357 50.9177 25.6101 51.0215C25.6846 51.1254 25.7788 51.2136 25.8876 51.2812C25.9963 51.3487 26.1174 51.3943 26.2438 51.4153C26.3703 51.4363 26.4997 51.4323 26.6246 51.4036C26.7495 51.3748 26.8675 51.3218 26.9718 51.2477C27.0761 51.1735 27.1647 51.0796 27.2325 50.9714C27.3003 50.8631 27.3459 50.7427 27.3669 50.6169C27.3878 50.4911 27.3837 50.3624 27.3546 50.2382C24.6609 38.678 24.7685 38.1821 27.6665 27.7044C28.9954 26.6471 30.0743 25.312 30.8267 23.7938C31.579 22.2756 31.9864 20.6113 32.02 18.919C33.4959 19.6662 35.8367 21.0938 37.137 23.154C34.7251 24.8052 27.6685 30.184 29.1319 35.6788C29.187 35.8858 29.3093 36.0688 29.4798 36.1995C29.6503 36.3302 29.8595 36.4011 30.0747 36.4014C30.1591 36.4009 30.2431 36.3899 30.3248 36.3687C30.5749 36.3028 30.7885 36.1408 30.9186 35.9183C31.0486 35.6958 31.0845 35.4311 31.0184 35.1822C30.8083 34.3061 30.8646 33.3877 31.1801 32.5434C31.2739 32.5944 31.3756 32.6295 31.481 32.6473C33.8962 33.1401 36.0974 34.3679 37.7796 36.1607C35.8536 36.7634 30.9186 38.2119 31.3252 50.4969C31.3355 50.747 31.4426 50.9835 31.6242 51.157C31.8057 51.3304 32.0477 51.4273 32.2994 51.4275C32.3127 51.4275 32.3261 51.427 32.3399 51.4265C32.4679 51.4213 32.5936 51.391 32.7098 51.3375C32.8261 51.2839 32.9305 51.2081 33.0173 51.1144C33.1041 51.0207 33.1715 50.9109 33.2156 50.7913C33.2598 50.6717 33.2798 50.5446 33.2745 50.4173C32.6314 34.769 39.7004 36.8482 39.7709 36.7643C39.9135 36.5956 39.9943 36.3837 39.9997 36.1633C40.0052 35.9429 39.935 35.7273 39.8009 35.5518C37.8488 33.1131 35.1049 31.4253 32.0392 30.7776C33.8226 27.9324 37.2272 25.3538 38.9367 24.2959C39.1396 24.1706 39.2891 23.9756 39.3571 23.7479C39.425 23.5203 39.4067 23.2757 39.3054 23.0606C37.5825 19.3995 33.2819 17.3026 31.8415 16.6853C31.7338 16.0888 31.5784 15.5018 31.3769 14.9298C34.619 14.0922 36.8478 12.8033 36.8478 11.0201ZM5.50267 11.0201C5.50267 10.4209 7.50745 9.31354 11.4291 8.57951C11.4047 8.87588 11.3934 9.09422 11.3888 9.20536C11.3834 9.33267 11.4032 9.45981 11.4472 9.57949C11.4912 9.69917 11.5585 9.80905 11.6452 9.90286C11.7319 9.99667 11.8363 10.0726 11.9525 10.1262C12.0688 10.1799 12.1945 10.2102 12.3225 10.2155C12.3363 10.216 12.3501 10.2165 12.3639 10.2165C12.6155 10.2164 12.8573 10.1196 13.0388 9.94639C13.2204 9.77316 13.3276 9.53687 13.3381 9.28687C13.4163 7.44089 14.1804 2.13086 16.5899 1.95222C17.1749 1.90958 17.333 1.89678 19.0451 3.46369C19.0675 3.48406 19.0908 3.50349 19.1151 3.52197C19.4622 3.78986 19.8941 3.92546 20.3328 3.90425C20.7716 3.88305 21.1882 3.70645 21.5075 3.40636L21.5899 3.3296C21.9239 3.01594 22.94 2.06215 23.988 1.94938C24.1424 1.9326 24.2987 1.94942 24.4459 1.99867C24.5931 2.04793 24.7278 2.12843 24.8407 2.23461C26.1884 3.35897 26.9187 7.17176 27.063 9.31057C27.081 9.5667 27.2003 9.8053 27.3948 9.97411C27.5894 10.1429 27.8432 10.2281 28.1008 10.2112C28.3584 10.1942 28.5987 10.0763 28.7691 9.88347C28.9395 9.6906 29.0261 9.43842 29.0099 9.18216C29.0035 9.08513 28.9876 8.87235 28.9579 8.5771C32.8878 9.31116 34.8965 10.4203 34.8965 11.0201C34.8965 11.9677 29.8965 14.1885 20.1998 14.1885C10.5032 14.1885 5.50267 11.9677 5.50267 11.0201ZM24.031 35.8352C22.8884 36.8378 21.4098 37.3788 19.8864 37.3516C18.3629 37.3244 16.9048 36.731 15.7991 35.6883C15.7632 35.6555 15.7249 35.6254 15.6844 35.5984C15.4002 33.3332 14.9954 31.0846 14.4716 28.8621C16.1173 29.7581 17.9522 30.2556 19.8274 30.3141C21.7026 30.3726 23.5652 29.9905 25.2641 29.1988C24.7365 31.388 24.3249 33.6032 24.031 35.8352ZM30.0742 18.7068C30.0349 21.2858 28.9773 23.746 27.1297 25.556C25.2821 27.3659 22.7929 28.3805 20.1996 28.3805C17.6063 28.3805 15.1171 27.3659 13.2696 25.556C11.422 23.746 10.3643 21.2858 10.325 18.7068C10.326 17.5608 10.5374 16.4246 10.9489 15.3542C14.003 15.8876 17.0991 16.147 20.1999 16.1292C23.3005 16.147 26.3964 15.8876 29.4504 15.3542C29.8619 16.4246 30.0733 17.5608 30.0742 18.7068Z" fill="white"/>
<path d="M18.7726 19.4638C18.5293 19.6554 18.3335 19.8979 18.1998 20.1733C18.066 20.4487 17.9978 20.7499 18.0001 21.0546C18.0001 21.2019 18.0602 21.3432 18.1672 21.4474C18.2743 21.5516 18.4194 21.6102 18.5708 21.6102C18.7222 21.6102 18.8673 21.5516 18.9744 21.4474C19.0814 21.3432 19.1415 21.2019 19.1415 21.0546C19.1396 20.9161 19.1698 20.779 19.2298 20.6535C19.2899 20.5279 19.3782 20.4172 19.4882 20.3294C19.584 20.2533 19.6964 20.1995 19.8168 20.1722C19.9372 20.1449 20.0625 20.1447 20.183 20.1718C20.3459 20.2135 20.4933 20.2992 20.6083 20.419C20.7232 20.5388 20.801 20.6879 20.8326 20.8489C20.8823 21.053 20.8589 21.2674 20.7662 21.4567C20.6736 21.6461 20.5172 21.7989 20.3231 21.8898C20.0518 22.0129 19.8229 22.2098 19.6639 22.4567C19.5049 22.7035 19.4226 22.9899 19.4269 23.2812V23.4852C19.4269 23.6326 19.487 23.7739 19.5941 23.8781C19.7011 23.9823 19.8463 24.0408 19.9976 24.0408C20.149 24.0408 20.2942 23.9823 20.4012 23.8781C20.5082 23.7739 20.5684 23.6326 20.5684 23.4852V23.2812C20.5648 23.2046 20.5836 23.1286 20.6226 23.0619C20.6615 22.9952 20.7191 22.9406 20.7885 22.9044C21.2194 22.7115 21.5696 22.3812 21.7813 21.968C21.9929 21.5549 22.0533 21.0838 21.9523 20.6327C21.8771 20.2597 21.6933 19.9156 21.4228 19.6414C21.1524 19.3672 20.8066 19.1745 20.4268 19.0862C20.1396 19.0241 19.8418 19.0258 19.5554 19.0912C19.269 19.1565 19.0014 19.2839 18.7726 19.4638Z" fill="white"/>
<path d="M20.05 26.5C20.4643 26.5 20.8 26.1642 20.8 25.75C20.8 25.3358 20.4643 25 20.05 25C19.6358 25 19.3 25.3358 19.3 25.75C19.3 26.1642 19.6358 26.5 20.05 26.5Z" fill="white"/>
</svg>
