<svg width="40" height="49" viewBox="0 0 40 49" fill="none" xmlns="http://www.w3.org/2000/svg">
<path d="M16.0997 48.1633H36.1451C37.1671 48.162 38.1469 47.7524 38.8696 47.0243C39.5922 46.2961 39.9988 45.3089 40 44.2791V3.88413C39.9988 2.85438 39.5922 1.86715 38.8696 1.139C38.1469 0.41085 37.1671 0.00123349 36.1451 0H16.0997C15.0777 0.00123349 14.098 0.41085 13.3753 1.139C12.6526 1.86715 12.2461 2.85438 12.2449 3.88413V44.2791C12.2461 45.3089 12.6526 46.2961 13.3753 47.0243C14.098 47.7524 15.0777 48.162 16.0997 48.1633ZM31.1515 1.55365L30.5347 3.10731H21.7094L21.0926 1.55365H31.1515ZM13.7868 3.88413C13.7868 3.26605 14.0305 2.67329 14.4643 2.23624C14.898 1.79919 15.4863 1.55365 16.0997 1.55365H19.4327L20.4719 4.17234C20.5292 4.31661 20.628 4.44028 20.7557 4.52739C20.8833 4.61449 21.034 4.66102 21.1882 4.66096H31.0567C31.2109 4.66102 31.3615 4.61449 31.4892 4.52739C31.6169 4.44028 31.7157 4.31661 31.7729 4.17234L32.8122 1.55365H36.1451C36.7585 1.55365 37.3468 1.79919 37.7806 2.23624C38.2143 2.67329 38.458 3.26605 38.458 3.88413V44.2791C38.458 44.8972 38.2143 45.49 37.7806 45.927C37.3468 46.3641 36.7585 46.6096 36.1451 46.6096H16.0997C15.4863 46.6096 14.898 46.3641 14.4643 45.927C14.0305 45.49 13.7868 44.8972 13.7868 44.2791V3.88413Z" fill="white"/>
<path d="M0.907029 21.3605H4.78549L1.93379 26.3492C1.83197 26.5281 1.79401 26.7362 1.82615 26.9395C1.85829 27.1428 1.95861 27.3292 2.11065 27.4679C2.26268 27.6066 2.45737 27.6895 2.66275 27.703C2.86813 27.7164 3.07198 27.6596 3.24082 27.5419L12.0771 21.3605H17.2336C17.4741 21.3605 17.7048 21.265 17.8749 21.0949C18.045 20.9248 18.1406 20.6941 18.1406 20.4535V5.94103C18.1406 5.70047 18.045 5.46976 17.8749 5.29966C17.7048 5.12956 17.4741 5.034 17.2336 5.034H0.907029C0.66647 5.034 0.435763 5.12956 0.265662 5.29966C0.0955611 5.46976 0 5.70047 0 5.94103V20.4535C0 20.6941 0.0955611 20.9248 0.265662 21.0949C0.435763 21.265 0.66647 21.3605 0.907029 21.3605ZM1.81406 6.84806H16.3265V19.5465H11.7914C11.6054 19.5466 11.424 19.6039 11.2717 19.7106L5.51655 23.7388L7.13651 20.907C7.21619 20.769 7.25811 20.6124 7.25803 20.453C7.25795 20.2937 7.21588 20.1371 7.13606 19.9992C7.05624 19.8613 6.94148 19.7468 6.80335 19.6673C6.66521 19.5878 6.50857 19.5462 6.34921 19.5465H1.81406V6.84806Z" fill="white"/>
<path d="M1.81406 6.84806H16.3265V19.5465H11.7914C11.6054 19.5466 11.424 19.6039 11.2717 19.7106L5.51655 23.7388L7.13651 20.907C7.21619 20.769 7.25811 20.6124 7.25803 20.453C7.25795 20.2937 7.21588 20.1371 7.13606 19.9992C7.05624 19.8613 6.94148 19.7468 6.80335 19.6673C6.66521 19.5878 6.50857 19.5462 6.34921 19.5465H1.81406V6.84806Z" fill="white"/>
<path d="M27.0294 34.9659H25.2153V40.4081H27.0294V34.9659Z" fill="white"/>
<path d="M27.0294 42.2222H25.2153V44.0363H27.0294V42.2222Z" fill="white"/>
<path d="M26.1223 30.2041C24.6692 30.2041 23.2488 30.6111 22.0406 31.3735C20.8324 32.1359 19.8907 33.2196 19.3346 34.4875C18.7786 35.7554 18.6331 37.1506 18.9166 38.4966C19.2 39.8426 19.8998 41.0789 20.9273 42.0493C21.9548 43.0197 23.2638 43.6806 24.689 43.9483C26.1142 44.2161 27.5914 44.0786 28.9339 43.5535C30.2764 43.0283 31.4238 42.1389 32.2311 40.9979C33.0384 39.8568 33.4693 38.5152 33.4693 37.1429C33.4671 35.3032 32.6924 33.5395 31.315 32.2387C29.9377 30.9378 28.0702 30.2061 26.1223 30.2041ZM26.1223 42.5397C24.9922 42.5397 23.8874 42.2232 22.9476 41.6302C22.0079 41.0372 21.2755 40.1943 20.843 39.2082C20.4105 38.222 20.2974 37.1369 20.5178 36.09C20.7383 35.0431 21.2826 34.0815 22.0817 33.3267C22.8809 32.572 23.8991 32.058 25.0075 31.8497C26.116 31.6415 27.2649 31.7484 28.3091 32.1569C29.3532 32.5653 30.2457 33.2571 30.8736 34.1446C31.5015 35.0321 31.8366 36.0755 31.8366 37.1429C31.8349 38.5737 31.2323 39.9455 30.161 40.9572C29.0898 41.969 27.6373 42.5381 26.1223 42.5397Z" fill="white"/>
<path d="M9.52397 15.0113H8.61694C8.49666 15.0113 8.38131 14.9635 8.29626 14.8785C8.2112 14.7934 8.16342 14.6781 8.16342 14.5578H6.34937C6.34947 15.0804 6.53007 15.5869 6.86062 15.9917C7.19118 16.3964 7.65139 16.6746 8.16342 16.7791V17.7324H9.97748V16.7791C10.5276 16.6663 11.0163 16.3533 11.3489 15.9008C11.6815 15.4484 11.8343 14.8886 11.7779 14.3299C11.7214 13.7711 11.4597 13.2532 11.0433 12.8765C10.6269 12.4997 10.0855 12.2908 9.52397 12.2902H8.61694C8.49666 12.2902 8.38131 12.2424 8.29626 12.1574C8.2112 12.0723 8.16342 11.957 8.16342 11.8367C8.16342 11.7164 8.2112 11.6011 8.29626 11.516C8.38131 11.431 8.49666 11.3832 8.61694 11.3832H9.52397C9.64425 11.3832 9.7596 11.431 9.84465 11.516C9.9297 11.6011 9.97748 11.7164 9.97748 11.8367H11.7915C11.7914 11.3141 11.6108 10.8076 11.2803 10.4028C10.9497 9.99808 10.4895 9.71992 9.97748 9.6154V8.66211H8.16342V9.6154C7.61332 9.72825 7.12465 10.0412 6.79205 10.4937C6.45945 10.9461 6.30657 11.5059 6.36302 12.0646C6.41946 12.6234 6.68122 13.1413 7.0976 13.5181C7.51399 13.8949 8.05538 14.1037 8.61694 14.1043H9.52397C9.64425 14.1043 9.7596 14.1521 9.84465 14.2371C9.9297 14.3222 9.97748 14.4375 9.97748 14.5578C9.97748 14.6781 9.9297 14.7934 9.84465 14.8785C9.7596 14.9635 9.64425 15.0113 9.52397 15.0113Z" fill="#7397FB"/>
</svg>
