<svg width="37" height="44" viewBox="0 0 37 44" fill="none" xmlns="http://www.w3.org/2000/svg">
<path d="M18.3449 0.0109639C18.2241 0.0242562 18.1056 0.0550946 17.9924 0.102631C13.6693 1.97834 9.09828 3.83705 1.31292 4.10499C0.961338 4.11694 0.627851 4.2767 0.383098 4.55043C0.138345 4.82417 0.00155072 5.19036 0.00168818 5.57148C-0.00209304 7.20291 0.00165393 16.3977 0.00168818 17.8994C0.00187706 26.2282 2.35505 32.183 5.83881 36.2919C9.32257 40.4006 13.8508 42.6438 18.1334 43.9452C18.3732 44.0183 18.6268 44.0183 18.8666 43.9452C23.1492 42.6438 27.6774 40.4006 31.1612 36.2919C34.6449 32.183 36.9981 26.2282 36.9983 17.8994C36.9983 16.3977 37.0021 7.20291 36.9983 5.57148C36.9984 5.19036 36.8616 4.82417 36.6169 4.55043C36.3721 4.2767 36.0387 4.11694 35.6871 4.10499C27.9017 3.83705 23.3307 1.97834 19.0076 0.102631C18.7972 0.0125761 18.5694 -0.0189456 18.3449 0.0109639ZM18.5 3.05091C22.5011 4.77208 27.2337 6.48152 34.2912 6.9158C34.2932 9.64842 34.2913 16.5554 34.2912 17.8994C34.2911 25.6431 32.195 30.742 29.1732 34.3059C26.2448 37.7597 22.36 39.7589 18.5 40.9816C14.64 39.7589 10.7552 37.7597 7.82681 34.3059C4.80498 30.742 2.70893 25.6431 2.70876 17.8994C2.70873 16.5554 2.70677 9.64843 2.70876 6.9158C9.76634 6.48152 14.4989 4.77208 18.5 3.05091ZM27.0019 13.6831C26.6513 13.7062 26.3226 13.876 26.0854 14.1567L15.384 26.6373L10.9569 21.0462C10.8414 20.8988 10.7002 20.7776 10.5414 20.6895C10.3826 20.6014 10.2093 20.5481 10.0314 20.5327C9.85354 20.5174 9.67463 20.5402 9.50494 20.6C9.33525 20.6598 9.17813 20.7553 9.04259 20.881C8.90705 21.0067 8.79577 21.1602 8.71512 21.3327C8.63448 21.5051 8.58607 21.6931 8.57267 21.8859C8.55927 22.0787 8.58114 22.2724 8.63703 22.456C8.69292 22.6396 8.78173 22.8094 8.89836 22.9557L14.3125 29.7995C14.4365 29.9559 14.5895 30.0823 14.7615 30.1703C14.9336 30.2584 15.1209 30.3061 15.3111 30.3105C15.5014 30.3148 15.6903 30.2757 15.8657 30.1955C16.041 30.1154 16.1988 29.9961 16.3287 29.8455L28.0593 16.158C28.2462 15.945 28.3697 15.676 28.4138 15.3859C28.4579 15.0959 28.4205 14.7982 28.3066 14.5314C28.1926 14.2647 28.0073 14.0412 27.7746 13.89C27.542 13.7387 27.2728 13.6666 27.0019 13.6831Z" fill="white"/>
</svg>
