<svg width="42" height="43" viewBox="0 0 42 43" fill="none" xmlns="http://www.w3.org/2000/svg">
<path fill-rule="evenodd" clip-rule="evenodd" d="M9.87388 1.00016C9.70431 1.00016 9.54113 1.06903 9.42114 1.19075L1.18874 9.40357C1.05276 9.5397 0.983971 9.7303 1.00317 9.92247V39.0759C1.00317 40.6855 2.32297 41.9988 3.93226 41.9988H30.3024C31.5134 41.9988 32.5628 41.2605 33.0044 40.2018C33.1404 39.8767 32.9884 39.5036 32.6652 39.3658C32.5085 39.2985 32.3309 39.2969 32.1725 39.3626C32.0142 39.4267 31.8894 39.5532 31.8238 39.7101C31.5774 40.3011 30.9983 40.7175 30.3025 40.7175H3.93231C3.00767 40.7175 2.2846 39.9952 2.2846 39.0759V10.5006H7.58763C9.19696 10.5006 10.5119 9.18727 10.5119 7.57767V2.28286H30.3021C31.2268 2.28286 31.9498 3.00356 31.9498 3.92288V19.8553H31.9514C31.9498 20.0251 32.0186 20.19 32.1386 20.3101C32.2586 20.4303 32.4234 20.4991 32.5929 20.4975C32.9465 20.4959 33.2328 20.2092 33.2312 19.8553V3.92289C33.2312 2.31329 31.913 1.0016 30.3037 1.0016H9.88778C9.88298 1 9.87868 1.00016 9.87388 1.00016ZM9.23718 3.18311V7.5796C9.23718 8.49892 8.51411 9.21962 7.58947 9.21962H3.19192L5.05242 7.36017L9.23718 3.18311ZM8.91563 13.3484C8.74446 13.3468 8.58129 13.414 8.4613 13.5358C8.33972 13.6559 8.27253 13.8208 8.27413 13.9906C8.27413 14.1604 8.34132 14.3238 8.4629 14.4439C8.58288 14.5624 8.74605 14.6297 8.91564 14.6297H25.3194C25.489 14.6297 25.6522 14.5624 25.7722 14.4439C25.8937 14.3238 25.9609 14.1604 25.9625 13.9906C25.9625 13.8209 25.8953 13.6559 25.7738 13.5358C25.6538 13.414 25.4906 13.3468 25.3194 13.3484H8.91563ZM8.91563 19.1557V19.1541C8.74606 19.1541 8.58289 19.2214 8.46289 19.3399C8.34131 19.46 8.27412 19.6234 8.27412 19.7931C8.27252 19.9629 8.33972 20.1279 8.46129 20.248C8.58127 20.3681 8.74445 20.437 8.91563 20.4354H25.3194C25.4906 20.437 25.6538 20.3681 25.7738 20.248C25.8953 20.1279 25.9625 19.9629 25.9625 19.7931C25.9609 19.6234 25.8937 19.46 25.7722 19.3399C25.6522 19.2214 25.489 19.1541 25.3194 19.1541L8.91563 19.1557ZM29.3316 20.075C28.8373 20.075 28.3445 20.2624 27.9702 20.6372C27.4375 21.1705 27.2839 21.9489 27.5111 22.6232L21.6671 28.4707C20.9936 28.2432 20.2161 28.3986 19.6834 28.9319C18.9363 29.6798 18.9331 30.9099 19.6802 31.6562L24.7944 36.7747C25.5415 37.5226 26.7717 37.5226 27.5188 36.7747C28.0515 36.2414 28.2051 35.4614 27.9779 34.7855L29.3585 33.4034L35.9703 41.1102C37.047 42.3643 38.9827 42.233 40.1234 41.091C41.264 39.9491 41.3024 38.096 40.1746 36.9668V36.9684C40.1634 36.9572 40.1506 36.9443 40.1378 36.9347L32.4448 30.3152L33.8189 28.9394C34.494 29.1668 35.2731 29.0147 35.8058 28.4814C36.5529 27.7334 36.5529 26.5002 35.8058 25.7523L30.6916 20.6338C30.3189 20.259 29.8245 20.0732 29.3318 20.0732L29.3316 20.075ZM29.33 21.3435C29.4932 21.3435 29.6563 21.4092 29.7875 21.5405L34.9018 26.659C35.1625 26.9201 35.1625 27.3141 34.9018 27.5767C34.641 27.8378 34.2491 27.8378 33.9867 27.5767L28.8725 22.4549C28.6117 22.1939 28.6117 21.8015 28.8725 21.5388C29.0037 21.4075 29.1668 21.3418 29.33 21.3418V21.3435ZM28.2742 23.669L32.7725 28.1725L27.2119 33.7396L22.7136 29.2361L28.2742 23.669ZM8.91563 24.9631C8.74606 24.9615 8.58288 25.0287 8.46289 25.1488C8.34131 25.2674 8.27412 25.4307 8.27253 25.6005C8.27253 25.7719 8.33971 25.9352 8.46129 26.0554C8.58128 26.1771 8.74445 26.2444 8.91563 26.2428H21.3617C21.5313 26.2428 21.6944 26.1755 21.8128 26.0538C21.9328 25.9336 22 25.7703 21.9984 25.6005C21.9984 25.2482 21.7137 24.9631 21.3617 24.9631L8.91563 24.9631ZM21.0431 29.6379C21.1967 29.6379 21.3502 29.6956 21.4766 29.8109L24.0586 32.3943L26.615 34.9536C26.8757 35.2147 26.8757 35.6071 26.615 35.8697C26.3542 36.1308 25.9623 36.1308 25.6999 35.8697L20.5857 30.7512C20.3249 30.4902 20.3249 30.0962 20.5857 29.8335C20.7169 29.7022 20.88 29.6365 21.0432 29.6365L21.0431 29.6379ZM31.5373 31.2235L39.2672 37.8718C39.8927 38.498 39.8863 39.5182 39.2161 40.1892C38.5474 40.8587 37.4787 40.9035 36.9396 40.2741L30.2655 32.4951L31.5373 31.2235Z" fill="white" stroke="white" stroke-width="0.5"/>
</svg>
