<svg width="66" height="80" viewBox="0 0 66 80" fill="none" xmlns="http://www.w3.org/2000/svg">
<path d="M48.3406 32.1817C53.6017 22.4875 51.8834 6.7013 51.8115 6.03588C51.7866 5.79532 51.6585 5.58913 51.4741 5.44542C51.2836 5.3017 51.043 5.24547 50.8118 5.28608C39.3181 7.27931 33.1918 0.57487 32.935 0.287427C32.7757 0.1031 32.5351 0 32.2883 0C32.0415 0 31.8072 0.1031 31.6416 0.287427C31.3854 0.574854 25.2683 7.27619 13.7744 5.27673C13.5495 5.24548 13.3089 5.30172 13.1184 5.43918C12.9278 5.58289 12.8059 5.79846 12.7747 6.02964C12.7028 6.69197 10.9845 22.4812 16.2456 32.1754C21.516 41.8912 31.5199 46.4028 31.9446 46.5875C32.0571 46.6344 32.1758 46.6594 32.2976 46.6594C32.4163 46.6594 32.5382 46.6344 32.6507 46.5875C33.063 46.4032 43.0613 41.8918 48.3406 32.1817ZM32.289 44.8439C30.4894 43.9628 22.2197 39.5734 17.7553 31.3603C13.4439 23.4187 14.125 10.6131 14.403 7.12599C24.2972 8.51002 30.374 3.85503 32.2854 2.08046C34.1974 3.85503 40.2739 8.5037 50.1678 7.12599C50.449 10.6126 51.1269 23.4184 46.8156 31.3603C42.373 39.5581 34.0885 43.9569 32.289 44.8439Z" fill="#B4B4B4"/>
<path d="M64.88 37.677C64.7363 36.4867 64.5989 35.3589 64.527 34.3904C64.4801 33.7437 64.4458 33.0876 64.4145 32.4378C64.3271 30.6476 64.2396 28.9669 63.8459 27.6484C63.7335 23.434 61.4466 22.0093 59.5346 21.5782C58.3818 21.3158 57.2228 21.6251 56.3511 22.4249C55.2326 23.4559 54.7202 25.1523 54.9827 26.9612C55.192 28.4233 55.5826 31.8786 56.1262 37.2304C56.0137 38.3114 55.8637 39.5111 55.67 40.8544C53.2956 40.1827 51.7742 41.926 49.2718 44.7971C48.9437 45.172 48.5907 45.5813 48.2096 46.0124C47.2348 47.1152 46.3226 48.0525 45.4353 48.9554C42.9235 51.514 40.7553 53.7291 39.2994 57.8969C38.0029 61.5991 37.1562 66.557 36.7626 69.2123L35.7941 69.0374C35.5692 68.9967 35.338 69.0467 35.1474 69.1748C34.9568 69.3029 34.8287 69.5029 34.7881 69.7278L33.6509 75.8949C33.5634 76.3666 33.8759 76.8133 34.3476 76.9039L51.0615 79.9844C51.1084 79.9938 51.1646 80 51.2208 80C51.3958 80 51.5645 79.9438 51.7082 79.8469C51.8988 79.7188 52.0269 79.5189 52.0675 79.294L53.2047 73.1269C53.2922 72.6551 52.9798 72.2084 52.508 72.1178L51.7551 71.9803C52.6736 68.8999 55.0511 65.479 57.0506 63.4386L57.5473 62.9356C60.106 60.327 63.0177 57.3778 64.6579 51.7227C66.0169 47.0489 65.383 41.8503 64.88 37.677ZM57.5226 23.6904C57.8413 23.3936 58.3849 23.0812 59.1535 23.2592C59.9689 23.4436 60.9624 23.8591 61.5684 25.0744C61.1373 24.9619 60.6968 24.9556 60.2969 25.0025C58.2569 25.2493 57.2884 26.2897 56.8354 27.7455C56.7885 27.3456 56.7386 26.9864 56.6979 26.7145C56.5136 25.4555 56.826 24.3308 57.5226 23.6904ZM50.5401 78.107L35.5194 75.339L36.3441 70.8777L37.3845 71.0683L50.4993 73.4832C50.5087 73.4832 50.5087 73.4832 50.5087 73.4926H50.54L51.3553 73.6457L50.5401 78.107ZM63.0088 51.2174C61.4905 56.4566 58.8661 59.1277 56.3231 61.7018L55.8263 62.2141C53.6519 64.4385 51.0432 68.2281 50.0685 71.6524L38.4812 69.5154C38.8655 66.9317 39.6965 62.055 40.9524 58.456C42.2802 54.6477 44.2234 52.6669 46.6884 50.155C47.5912 49.2366 48.5192 48.2837 49.5282 47.1465C49.9125 46.7154 50.2656 46.3061 50.5998 45.9219C53.6084 42.4665 54.2863 41.9229 56.0077 42.8258C56.1452 42.8977 56.2889 42.9789 56.4388 43.0726C57.1511 43.5194 57.3199 43.9537 57.3761 44.241C57.7854 46.1936 54.9143 50.3987 50.931 56.2218C50.6592 56.6123 50.7622 57.1497 51.1559 57.4215C51.5464 57.6933 52.0838 57.5902 52.3556 57.1965C57.2667 50.0141 59.6005 46.4466 59.0663 43.8873C58.8757 42.9501 58.3071 42.2065 57.3542 41.6067C57.3449 41.6067 57.3449 41.5973 57.3386 41.5973C57.5698 39.9821 57.7541 38.5668 57.8822 37.3109C58.0665 35.552 58.1634 34.0962 58.1634 32.9934V32.3779C58.154 28.3071 58.3383 26.97 60.5221 26.7076C61.2657 26.6107 61.8093 26.8044 62.1841 28.0354C62.5372 29.1632 62.6153 30.794 62.7028 32.5217C62.734 33.1778 62.7652 33.8495 62.8152 34.5118C62.8871 35.5271 63.0308 36.6706 63.1745 37.8796C63.6556 41.9067 64.2647 46.9153 63.0088 51.2174Z" fill="#B4B4B4"/>
<path d="M30.3293 69.1653C30.1387 69.0372 29.9138 68.9903 29.6826 69.0278L28.7141 69.2028C28.3142 66.541 27.4676 61.5892 26.1773 57.8874C24.7214 53.7135 22.5533 51.5047 20.0414 48.9458C19.1541 48.0429 18.2419 47.1057 17.2671 46.0028C16.8828 45.5717 16.5298 45.1624 16.2049 44.7876C13.7025 41.9071 12.181 40.1638 9.80663 40.8449C9.61606 39.4921 9.46297 38.3018 9.3505 37.2209C9.90348 31.8536 10.2878 28.3984 10.494 26.9612C10.7564 25.1524 10.2471 23.4591 9.1256 22.4249C8.254 21.6252 7.09487 21.3128 5.94206 21.5783C4.02385 22.0188 1.73383 23.434 1.63074 27.6579C1.24646 28.9763 1.15899 30.6665 1.06214 32.4473C1.0309 33.0877 0.999655 33.7438 0.949672 34.3905C0.877816 35.3653 0.740352 36.4868 0.596639 37.6772C0.093646 41.8604 -0.540575 47.0586 0.812205 51.7046C2.4524 57.3593 5.3641 60.3183 7.92277 62.9176L8.41951 63.4206C10.4096 65.4607 12.7934 68.8816 13.715 71.9623L12.9558 72.0997C12.7309 72.1404 12.5309 72.2684 12.4028 72.459C12.2747 72.6496 12.2279 72.8839 12.2654 73.1057L13.4026 79.2728C13.4838 79.6883 13.8431 79.9757 14.2492 79.9757C14.2961 79.9757 14.3523 79.9663 14.4086 79.9601L31.1225 76.8796C31.5942 76.7922 31.8973 76.3423 31.8191 75.8706L30.6819 69.7035C30.6476 69.4942 30.5195 69.2942 30.3289 69.1661L30.3293 69.1653ZM6.33571 23.2496C7.09488 23.0747 7.63848 23.3871 7.96024 23.6808C8.65692 24.3274 8.96933 25.449 8.79129 26.6955C8.75068 26.9673 8.70381 27.3266 8.65383 27.7265C8.1977 26.2801 7.22925 25.2303 5.19228 24.9835C4.79238 24.9367 4.36122 24.9523 3.92078 25.0554C4.52686 23.8495 5.52033 23.4402 6.33571 23.2496ZM9.66298 62.2143L9.16624 61.7114C6.6294 59.1276 3.99891 56.4565 2.48052 51.227C1.22461 46.9156 1.83382 41.9111 2.32118 37.8866C2.4649 36.6775 2.6086 35.5341 2.68046 34.5187C2.72733 33.8564 2.76169 33.1909 2.79293 32.5349C2.88041 30.8072 2.96164 29.1671 3.31154 28.0392C3.69581 26.8146 4.23001 26.624 4.98293 26.7114C7.16675 26.9738 7.35102 28.311 7.34166 32.3724V32.9878C7.34166 34.0906 7.43851 35.5465 7.62283 37.3054C7.75093 38.5613 7.93524 39.9765 8.16644 41.5917C8.15706 41.5917 8.15706 41.6011 8.15082 41.6011C7.19171 42.201 6.6325 42.9445 6.4388 43.8818C5.90144 46.4405 8.23831 50.0083 13.1495 57.191C13.4213 57.5815 13.9586 57.6877 14.3492 57.4159C14.7397 57.1441 14.8459 56.6068 14.5741 56.2163C10.5908 50.3929 7.71969 46.1878 8.12894 44.2355C8.19143 43.9481 8.35388 43.5169 9.07245 43.0671C9.22554 42.9702 9.35988 42.8921 9.51295 42.8203C11.225 41.9174 11.8967 42.461 14.9021 45.9163C15.2396 46.3006 15.5895 46.7067 15.9737 47.141C16.9828 48.2782 17.9107 49.2279 18.8136 50.1495C21.2754 52.6613 23.2217 54.6452 24.5496 58.4505C25.8055 62.0589 26.6365 66.9298 27.0207 69.5099L15.4334 71.6469C14.4462 68.2291 11.8374 64.4388 9.66298 62.2143ZM14.9491 78.1069L14.1243 73.6456L14.9397 73.4925H14.971C14.9803 73.4925 14.9803 73.4925 14.9803 73.4831L28.0896 71.0682L29.13 70.8776L29.9547 75.3389L14.9491 78.1069Z" fill="#B4B4B4"/>
<path d="M37.9905 15.5645L29.8959 23.3156L26.425 20.357C25.6565 19.7009 24.688 19.3885 23.6882 19.4697C22.6885 19.5509 21.7763 20.0133 21.1202 20.7818C19.7768 22.3565 19.9674 24.7401 21.5451 26.0835L27.6059 31.2415C28.287 31.8257 29.1493 32.1381 30.0459 32.1381C31.0207 32.1381 31.9485 31.7695 32.6452 31.0915L43.1952 20.9911C44.6917 19.5602 44.7479 17.1671 43.3139 15.6738C41.8799 14.1804 39.4964 14.1336 37.9905 15.5645ZM42.0051 19.7478L31.4575 29.8483C30.7296 30.545 29.4987 30.5856 28.7301 29.9295L22.6692 24.7715C21.8132 24.0436 21.7101 22.7565 22.438 21.9005C22.7911 21.485 23.2847 21.2381 23.8283 21.1882C23.8845 21.1788 23.9408 21.1788 23.997 21.1788C24.4781 21.1788 24.9405 21.3475 25.3154 21.6662L29.3768 25.1277C29.7142 25.4151 30.2172 25.3995 30.5358 25.0965L39.1959 16.8115C40.005 16.0367 41.2984 16.0679 42.0764 16.874C42.8449 17.6831 42.8142 18.9698 42.0051 19.7478Z" fill="#B4B4B4"/>
</svg>
