<svg width="72" height="80" viewBox="0 0 72 80" fill="none" xmlns="http://www.w3.org/2000/svg">
<path d="M36.0002 29.7534C41.4317 29.7534 45.8524 25.3067 45.8524 19.8436C45.8524 14.3837 41.4316 9.9373 36.0002 9.9373C30.5688 9.9373 26.148 14.3839 26.148 19.847C26.148 25.307 30.5688 29.7534 36.0002 29.7534ZM36.0002 12.0135C40.2918 12.0135 43.7847 15.5268 43.7847 19.8435C43.7847 24.1601 40.2918 27.6735 36.0002 27.6735C31.7086 27.6735 28.2156 24.1601 28.2156 19.8435C28.2156 15.5268 31.7086 12.0135 36.0002 12.0135ZM5.12097 48.6564L17.0279 50.903C17.4753 50.9863 17.9194 51.0297 18.3535 51.0297C19.868 51.0297 21.293 50.523 22.5325 49.5297L24.216 48.1831L25.5515 56.8299L21.187 54.7799C19.4903 53.9832 17.6742 53.9332 15.9344 54.6332C14.1945 55.3332 12.9187 56.6333 12.2393 58.3899L11.951 59.1365C11.2716 60.8932 11.3412 62.7165 12.1498 64.4165C12.9584 66.1165 14.3304 67.3131 16.1166 67.8798L25.3461 70.8065C25.3958 71.2665 25.5052 71.7198 25.6742 72.1598C26.4928 74.2765 28.5076 75.5565 30.7446 75.5565C31.3478 75.5565 31.9708 75.4632 32.5872 75.2665L36.0006 74.1865L39.4139 75.2698C40.0303 75.4665 40.6533 75.5598 41.2565 75.5598C43.4901 75.5598 45.505 74.2832 46.3269 72.1631C46.4992 71.7165 46.6086 71.2631 46.655 70.8098L55.8845 67.8832C57.6707 67.3165 59.0427 66.1199 59.8546 64.4198C60.6632 62.7198 60.7329 60.8932 60.0535 59.1399L59.7651 58.3932C59.0858 56.6365 57.8066 55.3399 56.07 54.6366C54.3302 53.9366 52.5142 53.9866 50.8174 54.7832L46.4529 56.8332L47.7885 48.1864L49.472 49.533C50.7114 50.5231 52.1364 51.033 53.6509 51.033C54.085 51.033 54.5291 50.9897 54.9765 50.9064L66.8835 48.6597C69.3557 48.193 70.9894 45.7897 70.5255 43.3031L69.8727 39.8131C69.7666 39.2498 69.2265 38.8798 68.6664 38.9831L55.139 41.5365L47.6196 33.1932C46.2907 31.7198 44.5442 30.9399 42.5658 30.9399L29.4355 30.9365C27.4571 30.9365 25.7106 31.7165 24.3817 33.1899L16.8623 41.5331L3.33495 38.9798C2.77489 38.8765 2.23469 39.2465 2.12864 39.8098L1.47579 43.2998C1.01515 45.7864 2.65202 48.1898 5.12097 48.6564ZM31.9678 73.2895C30.1717 73.8595 28.3523 73.1095 27.663 71.5428L32.5676 73.0994L31.9678 73.2895ZM44.3982 71.4095C43.7553 73.0662 41.8796 73.8728 40.0338 73.2895L16.7399 65.8995C15.4938 65.5061 14.5759 64.7028 14.0125 63.5194C13.4492 62.3361 13.4028 61.1128 13.8767 59.8895L14.165 59.1428C14.6389 57.9194 15.4939 57.0495 16.7035 56.5628C17.9164 56.0728 19.1293 56.1062 20.3124 56.6628L42.4431 67.0564C44.1995 67.8797 45.0411 69.7529 44.3982 71.4095ZM51.6856 56.6631C52.8687 56.1064 54.0816 56.0731 55.2945 56.5631C56.5075 57.0531 57.3591 57.9197 57.833 59.1431L58.1214 59.8897C58.5953 61.1131 58.5489 62.3331 57.9855 63.5197C57.4221 64.703 56.5041 65.503 55.2581 65.8997L46.446 68.6964C45.992 67.2163 44.8951 65.9164 43.321 65.1764L38.4428 62.8864L51.6856 56.6631ZM3.51058 43.6831L3.97122 41.2164L17.0515 43.6864C17.0614 43.6897 17.0714 43.6897 17.0813 43.6897C17.0913 43.6931 17.1012 43.6931 17.1111 43.6931C17.1708 43.6997 17.2271 43.7031 17.2835 43.6997C17.2901 43.6997 17.3 43.6997 17.3067 43.6964C17.3663 43.6931 17.4227 43.6831 17.4823 43.6697C17.4889 43.6664 17.4956 43.6664 17.5022 43.6631C17.5585 43.6464 17.6149 43.6297 17.6679 43.6031C17.6745 43.5997 17.6845 43.5964 17.6911 43.5931C17.7441 43.5664 17.7938 43.5364 17.8435 43.5031C17.8502 43.4964 17.8568 43.4931 17.8634 43.4864C17.9131 43.4497 17.9595 43.4064 17.9993 43.3631L18.0059 43.3564L25.913 34.5799C26.8509 33.5365 28.0373 33.0099 29.4357 33.0099H42.5627C43.9611 33.0099 45.1476 33.5399 46.0854 34.5799L53.9925 43.3564C53.9991 43.3631 54.0025 43.3664 54.0091 43.3731C54.019 43.3864 54.0323 43.3964 54.0455 43.4097C54.0588 43.4231 54.0754 43.4364 54.0886 43.4497C54.0986 43.4564 54.1052 43.4631 54.1151 43.4697C54.135 43.4864 54.1516 43.4997 54.1748 43.5131C54.1781 43.5164 54.1781 43.5164 54.1814 43.5164C54.2875 43.5897 54.4034 43.6397 54.5261 43.6664C54.5327 43.6664 54.536 43.6697 54.5426 43.6697C54.5625 43.6731 54.5857 43.6764 54.6056 43.6797C54.6188 43.6831 54.6321 43.6831 54.6454 43.6864C54.6652 43.6897 54.6818 43.6897 54.7017 43.6897C54.7183 43.6897 54.7315 43.6931 54.7481 43.6931H54.758C54.7647 43.6931 54.768 43.6931 54.7746 43.6897C54.8276 43.6897 54.884 43.6831 54.937 43.6731H54.9469H54.9502L68.0305 41.2031L68.4912 43.6697C68.7463 45.0298 67.8516 46.3464 66.4994 46.5997L54.5925 48.8464C53.1741 49.113 51.885 48.793 50.7549 47.8897L47.6796 45.4297C47.6762 45.4264 47.6762 45.4264 47.6729 45.4231C47.653 45.4097 47.6365 45.3964 47.6166 45.3831C47.6067 45.3764 47.5967 45.3697 47.5868 45.3631C47.5702 45.3531 47.5503 45.3431 47.5304 45.3331C47.5205 45.3264 47.5072 45.3197 47.494 45.3131C47.4774 45.3064 47.4641 45.2997 47.4476 45.2931C47.431 45.2864 47.4144 45.2764 47.3979 45.2731C47.3879 45.2697 47.3747 45.2664 47.3647 45.2631C47.3448 45.2564 47.3216 45.2497 47.3018 45.2431C47.2918 45.2397 47.2819 45.2397 47.2719 45.2364C47.2487 45.2297 47.2255 45.2264 47.2023 45.2197C47.199 45.2197 47.1957 45.2197 47.1957 45.2164C47.1858 45.2131 47.1758 45.2131 47.1659 45.2131C47.146 45.2097 47.1261 45.2064 47.1062 45.2064C47.0864 45.2031 47.0665 45.2031 47.0466 45.2031H47.0101C46.9869 45.2031 46.9604 45.2064 46.9372 45.2064C46.9306 45.2064 46.9207 45.2064 46.914 45.2097C46.8875 45.2131 46.861 45.2164 46.8345 45.2231C46.8279 45.2231 46.8246 45.2264 46.8179 45.2264C46.7914 45.2331 46.7649 45.2397 46.7417 45.2464C46.7351 45.2497 46.7284 45.2497 46.7218 45.2531C46.6986 45.2597 46.6754 45.2697 46.6489 45.2797C46.6423 45.2831 46.6323 45.2864 46.6257 45.2897C46.6058 45.2997 46.5826 45.3097 46.5627 45.3197C46.5528 45.3264 46.5429 45.3297 46.5329 45.3364C46.513 45.3464 46.4965 45.3597 46.4766 45.3697C46.4666 45.3764 46.4567 45.3831 46.4468 45.3897C46.4302 45.4031 46.4103 45.4164 46.3937 45.4297C46.3838 45.4364 46.3772 45.4431 46.3672 45.4531C46.3473 45.4697 46.3308 45.4864 46.3142 45.5031C46.3076 45.5097 46.3009 45.5164 46.2943 45.5231C46.2744 45.5431 46.2579 45.5631 46.238 45.5864C46.2347 45.5897 46.2313 45.5931 46.228 45.5964L46.2247 45.5997C46.2082 45.6231 46.1916 45.6464 46.175 45.6697C46.1717 45.6731 46.1684 45.6797 46.1651 45.6831L46.1253 45.7531C46.122 45.7597 46.1154 45.7697 46.112 45.7764C46.1021 45.7964 46.0955 45.8131 46.0889 45.8331C46.0822 45.8464 46.0789 45.8597 46.0723 45.8731C46.0657 45.8864 46.0623 45.9031 46.059 45.9164C46.0524 45.9364 46.0458 45.9531 46.0425 45.9731C46.0391 45.9831 46.0358 45.9964 46.0358 46.0097C46.0292 46.0331 46.0259 46.0531 46.0226 46.0764C46.0226 46.0797 46.0226 46.0831 46.0193 46.0864L44.1966 57.876L36.0011 61.736L27.809 57.8893L25.9864 46.0997C25.9864 46.0964 25.9864 46.093 25.9831 46.093C25.9797 46.0697 25.9731 46.0464 25.9665 46.0197C25.9632 46.0097 25.9632 45.9997 25.9599 45.9897C25.9532 45.9697 25.9466 45.9464 25.94 45.9264C25.9367 45.913 25.9334 45.903 25.9267 45.8897C25.9201 45.873 25.9135 45.8597 25.9068 45.843C25.9002 45.8264 25.8936 45.8097 25.8836 45.793C25.8803 45.783 25.8737 45.773 25.8671 45.7664C25.8571 45.7464 25.8439 45.723 25.8306 45.703C25.8273 45.6964 25.824 45.693 25.8174 45.6864C25.8008 45.663 25.7875 45.6397 25.7677 45.6164C25.7677 45.613 25.7643 45.613 25.7643 45.613C25.761 45.6097 25.7577 45.603 25.7544 45.5997C25.7378 45.5797 25.7213 45.5597 25.7014 45.5397C25.6947 45.533 25.6848 45.523 25.6782 45.5164C25.6616 45.4997 25.645 45.483 25.6285 45.4697C25.6185 45.463 25.6086 45.453 25.5986 45.4464C25.5821 45.433 25.5655 45.4197 25.5489 45.4097C25.539 45.403 25.529 45.3964 25.5158 45.3897C25.4992 45.3797 25.4793 45.3664 25.4628 45.3564C25.4528 45.3497 25.4429 45.3464 25.4329 45.3397C25.4131 45.3297 25.3932 45.3197 25.3733 45.3097C25.3633 45.3064 25.3567 45.303 25.3468 45.2997C25.3236 45.2897 25.3004 45.283 25.2772 45.273C25.2706 45.2697 25.2639 45.2697 25.2573 45.2664C25.2341 45.2597 25.2076 45.253 25.1811 45.2464C25.1745 45.243 25.1678 45.243 25.1612 45.243C25.1347 45.2364 25.1115 45.233 25.085 45.2297C25.0783 45.2297 25.0684 45.2264 25.0618 45.2264C25.0386 45.223 25.0154 45.223 24.9889 45.223H24.9491C24.9292 45.223 24.9127 45.223 24.8928 45.2264C24.8729 45.2297 24.853 45.2297 24.8298 45.233C24.8199 45.233 24.8099 45.2364 24.8 45.2364C24.7967 45.2364 24.7933 45.2364 24.7933 45.2397C24.7701 45.243 24.7436 45.2497 24.7204 45.2564C24.7105 45.2597 24.7006 45.2597 24.6906 45.263C24.6674 45.2697 24.6475 45.2764 24.6243 45.283C24.6144 45.2864 24.6011 45.2897 24.5912 45.293C24.5746 45.2997 24.5581 45.3064 24.5415 45.313C24.5249 45.3197 24.5117 45.3264 24.4951 45.333C24.4851 45.3397 24.4719 45.3464 24.462 45.353C24.4421 45.363 24.4222 45.373 24.4056 45.3864C24.3957 45.393 24.389 45.3964 24.3791 45.403C24.3592 45.4164 24.3393 45.4297 24.3195 45.4464C24.3161 45.4497 24.3161 45.4497 24.3128 45.4497L21.2375 47.9097C20.1074 48.813 18.8182 49.133 17.3999 48.8664L5.50568 46.6131C4.15022 46.3564 3.25547 45.0431 3.51058 43.6831ZM72 69.1934C72 76.2101 53.452 80 36 80C18.5481 80 0 76.21 0 69.1934C0 66.6301 2.42916 64.3901 7.21782 62.5268C7.75137 62.3201 8.34785 62.5868 8.55333 63.1201C8.7588 63.6568 8.49368 64.2567 7.96345 64.4634C4.21863 65.92 2.06791 67.6434 2.06791 69.1901C2.06791 71.2301 5.61387 73.4368 11.5528 75.0968C18.068 76.9167 26.7506 77.9201 35.9996 77.9201C45.2486 77.9201 53.9317 76.9167 60.4464 75.0968C66.385 73.4368 69.9312 71.2301 69.9312 69.1901C69.9312 67.6401 67.7838 65.9201 64.0357 64.4634C63.5021 64.2567 63.237 63.6567 63.4458 63.1201C63.6513 62.5834 64.2511 62.3201 64.7813 62.5268C69.57 64.3868 71.9991 66.6301 71.9991 69.1934H72ZM34.9667 6.60666V1.04004C34.9667 0.463376 35.4306 0 36.0007 0C36.5707 0 37.0347 0.463333 37.0347 1.04004V6.60666C37.0347 7.17999 36.574 7.6467 36.0007 7.6467C35.4307 7.64337 34.9667 7.18003 34.9667 6.60666ZM22.0485 7.28333C21.6441 6.87667 21.6441 6.21999 22.0485 5.8133C22.4528 5.40663 23.1056 5.40663 23.51 5.8133L27.4238 9.74997C27.8281 10.1566 27.8281 10.8133 27.4238 11.22C27.2216 11.4233 26.9565 11.5233 26.6947 11.5233C26.4296 11.5233 26.1678 11.4233 25.9656 11.22L22.0485 7.28333ZM16.2689 19.8469C16.2689 19.2736 16.7295 18.8069 17.3029 18.8069H22.8372C23.4072 18.8069 23.8712 19.2702 23.8712 19.8469C23.8712 20.4203 23.4105 20.887 22.8372 20.887H17.3029C16.7329 20.8836 16.2689 20.4203 16.2689 19.8469ZM44.5767 11.2172C44.1724 10.8105 44.1724 10.1539 44.5767 9.74715L48.4905 5.81048C48.8948 5.40382 49.5476 5.40382 49.952 5.81048C50.3563 6.21714 50.3563 6.87382 49.952 7.28051L46.0382 11.2172C45.836 11.4205 45.5709 11.5205 45.3091 11.5205C45.044 11.5239 44.7788 11.4205 44.5767 11.2172ZM49.1632 18.8071H54.6975C55.2675 18.8071 55.7314 19.2705 55.7314 19.8472C55.7314 20.4205 55.2708 20.8872 54.6975 20.8872H49.1632C48.5932 20.8872 48.1292 20.4239 48.1292 19.8472C48.1292 19.2705 48.5931 18.8071 49.1632 18.8071Z" fill="#B4B4B4"/>
</svg>
