<svg width="80" height="80" viewBox="0 0 80 80" fill="none" xmlns="http://www.w3.org/2000/svg">
<path fill-rule="evenodd" clip-rule="evenodd" d="M77.525 7.4997C77.525 6.16673 76.9969 4.88802 76.0532 3.94568C75.1126 3.00293 73.8344 2.47375 72.5001 2.47375C59.4032 2.47375 20.5982 2.47375 7.50006 2.47375C6.16694 2.47375 4.88882 3.00293 3.946 3.94568C3.0035 4.88802 2.47412 6.16673 2.47412 7.4997C2.47412 18.6083 2.47412 47.81 2.47412 58.9186C2.47412 60.2516 3.0035 61.5299 3.946 62.4727C4.88882 63.415 6.16694 63.9446 7.50006 63.9446C20.5982 63.9446 59.4032 63.9446 72.5001 63.9446C73.8344 63.9446 75.1126 63.415 76.0532 62.4727C76.9969 61.5299 77.525 60.2516 77.525 58.9186V7.4997ZM76.2251 7.4997V58.9186C76.2251 59.9065 75.8313 60.8534 75.1345 61.552C74.4345 62.2502 73.4876 62.6425 72.5001 62.6425C59.4032 62.6425 20.5982 62.6425 7.50006 62.6425C6.51256 62.6425 5.56505 62.2502 4.86693 61.552C4.16849 60.8534 3.776 59.9065 3.776 58.9186C3.776 47.81 3.776 18.6083 3.776 7.4997C3.776 6.51187 4.16849 5.56494 4.86693 4.86632C5.56505 4.16812 6.51256 3.77584 7.50006 3.77584C20.5982 3.77584 59.4032 3.77584 72.5001 3.77584C73.4876 3.77584 74.4345 4.16812 75.1345 4.86632C75.8313 5.56494 76.2251 6.51187 76.2251 7.4997Z" fill="#B4B4B4" stroke="#B4B4B4" stroke-width="0.5"/>
<path fill-rule="evenodd" clip-rule="evenodd" d="M77.525 53.969C77.525 53.6094 77.2344 53.3179 76.8751 53.3179H3.12506C2.76537 53.3179 2.47412 53.6094 2.47412 53.969V58.9192C2.47412 60.2522 3.0035 61.5306 3.946 62.4732C4.88882 63.4158 6.16694 63.9453 7.50006 63.9453C20.5982 63.9453 59.4032 63.9453 72.5001 63.9453C73.8344 63.9453 75.1126 63.4158 76.0532 62.4732C76.9969 61.5306 77.525 60.2522 77.525 58.9192C77.525 56.4961 77.525 53.969 77.525 53.969ZM76.2251 54.62V58.9192C76.2251 59.9069 75.8313 60.8541 75.1345 61.5524C74.4345 62.2509 73.4876 62.6432 72.5001 62.6432C59.4032 62.6432 20.5982 62.6432 7.50006 62.6432C6.51256 62.6432 5.56505 62.2509 4.86693 61.5524C4.16849 60.8541 3.776 59.9069 3.776 58.9192V54.62H76.2251Z" fill="#B4B4B4"/>
<path fill-rule="evenodd" clip-rule="evenodd" d="M71.9744 54.6206C72.3348 54.6206 72.6248 54.3291 72.6248 53.9695V8.08883C72.6248 7.72922 72.3348 7.43774 71.9744 7.43774H8.02566C7.66608 7.43774 7.37451 7.72922 7.37451 8.08883V53.9695C7.37451 54.3291 7.66608 54.6206 8.02566 54.6206H71.9744ZM71.3241 53.3187H8.6768V8.73962C8.6768 8.73962 64.6366 8.73962 71.3241 8.73962V53.3187Z" fill="#B4B4B4"/>
<path fill-rule="evenodd" clip-rule="evenodd" d="M53.1829 31.8267C53.1829 30.0864 51.772 28.6757 50.0318 28.6757C45.2303 28.6757 34.7697 28.6757 29.9683 28.6757C28.228 28.6757 26.8171 30.0864 26.8171 31.8267C26.8171 35.2488 26.8171 41.3563 26.8171 44.7784C26.8171 46.5186 28.228 47.9294 29.9683 47.9294C34.7697 47.9294 45.2303 47.9294 50.0318 47.9294C51.772 47.9294 53.1829 46.5186 53.1829 44.7784V31.8267ZM51.8807 31.8267V44.7784C51.8807 45.7995 51.0529 46.6273 50.0318 46.6273C45.2303 46.6273 34.7697 46.6273 29.9683 46.6273C28.9471 46.6273 28.1193 45.7995 28.1193 44.7784V31.8267C28.1193 30.8056 28.9471 29.9778 29.9683 29.9778C34.7697 29.9778 45.2303 29.9778 50.0318 29.9778C51.0529 29.9778 51.8807 30.8056 51.8807 31.8267Z" fill="#B4B4B4"/>
<path fill-rule="evenodd" clip-rule="evenodd" d="M33.6713 37.7774C33.4171 38.0316 33.4171 38.4439 33.6713 38.6981L38.5619 43.5886C38.8161 43.8429 39.2283 43.8429 39.4826 43.5886L47.43 35.6412C47.6842 35.387 47.6842 34.9748 47.43 34.7205L45.7255 33.016C45.4712 32.7618 45.059 32.7618 44.8048 33.016L39.0222 38.7985L36.2966 36.0729C36.0423 35.8186 35.6301 35.8186 35.3759 36.0729L33.6713 37.7774ZM35.0524 38.2377L35.8362 37.4539L38.5619 40.1796C38.8161 40.4338 39.2283 40.4338 39.4826 40.1796L45.2651 34.3971L46.0489 35.1809L39.0222 42.2076L35.0524 38.2377Z" fill="#B4B4B4"/>
<path fill-rule="evenodd" clip-rule="evenodd" d="M49.7399 23.8672C49.7399 21.2839 48.7139 18.8065 46.8872 16.98C45.0607 15.1535 42.5833 14.1273 40.0002 14.1273H39.9998C37.4167 14.1273 34.9392 15.1535 33.1127 16.98C31.2861 18.8065 30.26 21.2839 30.26 23.8672C30.26 26.8084 30.26 29.3267 30.26 29.3267C30.26 29.6863 30.5515 29.9777 30.911 29.9777H49.089C49.4485 29.9777 49.7399 29.6863 49.7399 29.3267V23.8672ZM48.438 23.8672V28.6757H31.562V23.8672C31.562 21.6294 32.4511 19.483 34.0334 17.9007C35.6158 16.3183 37.7619 15.4294 39.9998 15.4294H40.0002C42.2381 15.4294 44.3841 16.3183 45.9666 17.9007C47.5489 19.483 48.438 21.6294 48.438 23.8672Z" fill="#B4B4B4"/>
<path fill-rule="evenodd" clip-rule="evenodd" d="M46.8893 23.8931C46.8893 22.0659 46.1636 20.3136 44.8716 19.0217C43.5795 17.7296 41.8273 17.0038 40.0002 17.0038H39.9999C38.1728 17.0038 36.4206 17.7296 35.1286 19.0217C33.8366 20.3136 33.1108 22.0659 33.1108 23.8931C33.1108 26.671 33.1108 29.3267 33.1108 29.3267C33.1108 29.6861 33.4022 29.9777 33.7618 29.9777H46.2383C46.5979 29.9777 46.8893 29.6861 46.8893 29.3267V23.8931ZM45.5873 23.8931V28.6756H34.4128V23.8931C34.4128 22.4114 35.0016 20.9901 36.0493 19.9424C37.0971 18.8947 38.5181 18.306 39.9999 18.306H40.0002C41.482 18.306 42.903 18.8947 43.9508 19.9424C44.9985 20.9901 45.5873 22.4114 45.5873 23.8931Z" fill="#B4B4B4"/>
<path d="M27.8643 71.929H52.1396C54.3739 71.929 56.1883 73.7414 56.1885 75.9769V76.8753C56.1883 77.0963 56.0092 77.2756 55.7861 77.2757H24.2178C23.9963 77.2757 23.8166 77.0966 23.8164 76.8753V75.9769C23.8166 73.7413 25.6289 71.929 27.8643 71.929ZM27.8643 72.7308C26.0718 72.7308 24.6193 74.1843 24.6191 75.9769V76.4739H55.3838V75.9769C55.3836 74.1845 53.9319 72.7308 52.1396 72.7308H27.8643Z" fill="#B4B4B4" stroke="#B4B4B4" stroke-width="0.5"/>
<path d="M31.8235 62.8931H48.1799C48.3545 62.8931 48.5058 63.0056 48.5598 63.1665L48.5774 63.2378L49.8625 72.2739C49.8786 72.3891 49.8447 72.5056 49.7688 72.5933C49.6923 72.6811 49.5814 72.731 49.4651 72.731H30.5383C30.4223 72.731 30.3115 72.6807 30.2356 72.5933H30.2346C30.1584 72.5056 30.1245 72.3889 30.1409 72.2739L31.427 63.2378C31.455 63.0404 31.624 62.8932 31.8235 62.8931ZM32.1409 63.9097L31.0403 71.644L31.0002 71.9292H49.0032L48.9631 71.644L47.8625 63.9097L47.8323 63.6948H32.1721L32.1409 63.9097Z" fill="#B4B4B4" stroke="#B4B4B4" stroke-width="0.5"/>
</svg>
