<svg width="194" height="147" viewBox="0 0 194 147" fill="none" xmlns="http://www.w3.org/2000/svg">
<path d="M62.2118 92.7349L62.3463 93.7258L62.4075 93.7175L62.4673 93.7017L62.2118 92.7349ZM50.0692 71.6736L49.0801 71.5262L50.0692 71.6736ZM189.452 101.755C189.915 101.454 190.047 100.834 189.746 100.371C189.445 99.9083 188.825 99.7768 188.362 100.078L188.907 100.916L189.452 101.755ZM1.91016 14.0012L0.912424 13.9339C-0.00611738 27.5625 2.29682 49.1754 11.3128 66.5557C15.8274 75.2587 22.05 82.947 30.4415 88.0137C38.8476 93.0893 49.3564 95.4889 62.3463 93.7258L62.2118 92.7349L62.0773 91.744C49.4964 93.4516 39.4546 91.1195 31.4753 86.3016C23.4814 81.475 17.4837 74.1082 13.0882 65.6348C4.28385 48.6625 2.00682 27.4379 2.9079 14.0684L1.91016 14.0012ZM62.2118 92.7349L62.4673 93.7017C77.0929 89.8373 85.7499 79.9902 88.9319 70.2331C92.0758 60.5927 89.9214 50.6082 82.2428 47.1601L81.8332 48.0723L81.4235 48.9846C87.7126 51.8088 90.0419 60.3787 87.0304 69.613C84.057 78.7307 75.9195 88.0787 61.9564 91.7681L62.2118 92.7349ZM81.8332 48.0723L82.2428 47.1601C74.8003 43.818 67.0109 46.2081 60.9091 51.1895C54.8118 56.1672 50.2237 63.8532 49.0801 71.5262L50.0692 71.6736L51.0582 71.821C52.1231 64.6762 56.4332 57.4254 62.1739 52.7388C67.91 48.056 74.8983 46.0544 81.4235 48.9846L81.8332 48.0723ZM50.0692 71.6736L49.0801 71.5262C46.2073 90.8014 59.4839 112.672 84.3106 122.522C109.193 132.394 145.639 130.23 189.452 101.755L188.907 100.916L188.362 100.078C144.93 128.305 109.167 130.232 85.0481 120.663C60.8729 111.071 48.3535 89.9691 51.0582 71.821L50.0692 71.6736Z" fill="#F8F09D"/>
<path d="M146.407 96.8746C162.956 101.259 190.28 99.1988 190.28 99.1988L181.944 132.837" stroke="#F8F09D" stroke-width="2" stroke-linecap="round"/>
</svg>
